<?xml version="1.0" encoding="UTF-8"?>
<svg id="Layer_1" data-name="Layer 1" xmlns="http://www.w3.org/2000/svg" xmlns:xlink="http://www.w3.org/1999/xlink" viewBox="0 0 1902.73 978.94">
  <defs>
    <style>
      .cls-1 {
        fill: #bdccd4;
      }

      .cls-2 {
        fill: url(#linear-gradient);
      }

      .cls-3 {
        opacity: .22;
      }

      .cls-4 {
        fill: #fff;
        fill-rule: evenodd;
        opacity: .5;
      }
    </style>
    <linearGradient id="linear-gradient" x1="931.2" y1="8344.99" x2="931.2" y2="8061" gradientTransform="translate(17.81 -8073.98)" gradientUnits="userSpaceOnUse">
      <stop offset="0" stop-color="#fff"/>
      <stop offset="1" stop-color="#fff" stop-opacity="0"/>
    </linearGradient>
  </defs>
  <rect class="cls-1" x="-10.98" y="-7.75" width="1920" height="994.65"/>
  <rect class="cls-2" x="-30.13" y="-12.98" width="1958.29" height="283.99" transform="translate(1898.03 258.03) rotate(180)"/>
  <g class="cls-3">
    <path class="cls-4" d="M1249.78,361.37c18.11-32.27,58.96-43.75,91.23-25.65,32.27,18.11,43.75,58.96,25.65,91.23-16.73,29.82-52.89,41.89-83.75,29.26l-25.08,44.69c16.71,14.28,21.58,38.83,10.41,58.73-12.71,22.65-41.38,30.71-64.02,18-10.52-5.9-17.9-15.26-21.5-25.85l-165.99,49.47c2.73,13.91.72,28.82-6.76,42.14-2.46,4.39-5.38,8.35-8.66,11.88l38.35,46.16c18.26-10.66,42.08-6.89,56.04,9.91.14.17.28.34.41.51l74.99-33.03c-3.14-7.12-4.75-15.05-4.43-23.34,1.11-29.25,25.74-52.08,55-50.96,29.25,1.11,52.08,25.74,50.96,55-.67,17.6-9.85,32.87-23.44,42l79.35,138.18c19.71-8.11,42.19-9.88,64.27-3.54,52,14.94,82.06,69.22,67.12,121.22-14.94,52-69.22,82.06-121.22,67.12-52-14.94-82.06-69.22-67.12-121.22,7.43-25.88,24.61-46.32,46.4-58.48l-79.16-137.86c-6.55,2.55-13.72,3.82-21.19,3.54-17.9-.68-33.4-10.17-42.47-24.13l-74.31,32.73c9.44,18.01,5.38,40.77-10.89,54.29-18.71,15.54-46.48,12.97-62.02-5.73-14.59-17.56-13.22-43.1,2.47-59.02l-37.86-45.57c-17.89,13.08-42.11,15.96-63.11,5.95l-40.39,53.19c14.94,14.87,18.82,38.41,8,57.69-6,10.7-15.49,18.22-26.24,21.94l14.84,80.1c7.65-1.42,15.73-1.17,23.74,1.04,28.22,7.8,44.78,37.01,36.98,65.23-7.8,28.22-37.01,44.78-65.23,36.98-16.98-4.69-29.73-17.14-35.5-32.45l-152.7,45.51c3.37,21.05-.07,43.33-11.31,63.36-26.47,47.18-86.21,63.98-133.39,37.5-47.18-26.47-63.98-86.21-37.5-133.39,26.48-47.18,86.21-63.98,133.39-37.5,23.48,13.17,39.43,34.59,46.27,58.59l152.35-45.41c-.97-6.96-.57-14.23,1.42-21.44,4.77-17.27,17.56-30.17,33.24-35.8l-14.87-80.26c-10.32,1.63-21.24-.07-31.05-5.57-23.19-13.01-31.45-42.38-18.43-65.57,13.01-23.19,42.38-31.45,65.57-18.44.41.23.81.46,1.2.7l39.52-52.05c-16.75-12.29-25.8-31.89-25.19-51.8l-112.85-6.6c-.62,10.66-3.61,21.36-9.19,31.3-19.67,35.05-64.04,47.53-99.09,27.86-3.92-2.2-7.56-4.71-10.9-7.48l-39.67,52.24c16.03,16.6,26.3,38.89,27.39,63.76,2.36,54.05-39.56,99.8-93.61,102.16-26.9,1.17-51.74-8.62-70.2-25.41l-105.56,118.86c4.5,5.4,7.99,11.79,10.09,18.97,5.04,17.19.97,34.9-9.39,47.94l54.93,60.38c7.91-6.82,18.08-11.13,29.33-11.62,26.57-1.16,49.06,19.45,50.21,46.02,1.16,26.57-19.45,49.06-46.02,50.22-26.57,1.16-49.06-19.45-50.22-46.02-.54-12.26,3.56-23.64,10.74-32.47l-54.82-60.26c-5.76,5.24-12.76,9.28-20.73,11.62-28.09,8.24-57.56-7.86-65.8-35.95-8.24-28.09,7.86-57.56,35.95-65.8,16.9-4.96,34.3-1.1,47.27,8.87l105.81-119.14c-13.95-16.11-22.77-36.87-23.78-59.81-2.36-54.05,39.56-99.8,93.62-102.16,24.97-1.09,48.16,7.27,66.12,21.91l39.89-52.53c-19.59-22.54-23.98-55.84-8.53-83.37,2.32-4.14,5-7.97,7.96-11.46l-97.84-67.98c-14.37,16.13-38.49,20.7-58.11,9.7-22.65-12.71-30.71-41.38-18-64.02,12.3-21.92,39.55-30.17,61.82-19.16l24.46-43.59c-30.02-18.88-40.27-58.21-22.72-89.48,18.11-32.27,58.96-43.75,91.23-25.65,32.27,18.11,43.75,58.96,25.65,91.23-16.73,29.82-52.89,41.89-83.75,29.26l-25.08,44.69c16.34,13.97,21.36,37.75,11.13,57.4l99.6,69.2c22.53-19.13,55.46-23.3,82.74-7.99,21.45,12.04,34.44,33.32,36.79,56.07l114.59,6.71c1.29-5.71,3.41-11.33,6.42-16.69,15.4-27.45,48.63-38.61,77.06-27.13l36.33-64.75c-14.48-10.51-19.12-30.44-10.15-46.43,9.67-17.23,31.47-23.36,48.7-13.69,17.23,9.67,23.36,31.47,13.69,48.7-8.41,14.99-26,21.57-41.78,16.67l-36.41,64.88c11.14,7.16,19.27,17.39,23.91,28.94l166.93-49.75c-.71-8.97,1.14-18.24,5.87-26.68,12.3-21.92,39.55-30.17,61.82-19.16l24.46-43.59c-30.02-18.88-40.27-58.21-22.72-89.48h0ZM615.54,773.71c1.57,36.02-26.36,66.5-62.38,68.07-36.02,1.57-66.5-26.36-68.07-62.38-1.57-36.02,26.36-66.5,62.38-68.07,36.02-1.57,66.5,26.36,68.07,62.38h0ZM330.01,968.67c18.72-5.49,38.35,5.24,43.84,23.96,5.49,18.72-5.24,38.35-23.96,43.84-18.72,5.49-38.35-5.24-43.84-23.96-5.49-18.72,5.24-38.35,23.96-43.84h0ZM498.79,1130.23c.77,17.71-12.96,32.69-30.66,33.46-17.7.77-32.69-12.96-33.46-30.66-.77-17.7,12.96-32.69,30.66-33.46,17.7-.77,32.69,12.96,33.46,30.66h0ZM493.57,438.92c8.47-15.09,27.57-20.46,42.66-11.99,15.09,8.47,20.46,27.57,11.99,42.66-8.47,15.09-27.57,20.46-42.66,11.99-15.09-8.47-20.46-27.57-11.99-42.66h0ZM563.24,290.11c12.06-21.5,39.29-29.15,60.79-17.09,21.5,12.06,29.15,39.29,17.09,60.79-12.06,21.5-39.29,29.15-60.79,17.09-21.5-12.06-29.15-39.29-17.09-60.79h0ZM1348.2,991.5c-34.65-9.95-54.68-46.12-44.73-80.77,9.95-34.65,46.12-54.68,80.78-44.72,34.65,9.95,54.68,46.12,44.72,80.77-9.95,34.65-46.12,54.68-80.77,44.72h0ZM1254.07,658.81c-.74,19.49-17.15,34.7-36.64,33.96-19.49-.74-34.7-17.15-33.96-36.65.74-19.49,17.15-34.7,36.65-33.96,19.49.74,34.7,17.15,33.96,36.64h0ZM540.71,982.5c17.64-31.44,57.44-42.63,88.88-24.99,31.44,17.64,42.63,57.44,24.99,88.88-17.64,31.44-57.44,42.63-88.88,24.99-31.44-17.64-42.63-57.44-24.99-88.88h0ZM886.12,967.25c-18.8-5.2-29.84-24.66-24.64-43.46,5.2-18.8,24.66-29.84,43.46-24.64,18.8,5.2,29.84,24.66,24.64,43.46-5.2,18.8-24.66,29.84-43.46,24.64h0ZM667.43,577.1c13.1-23.36,42.67-31.67,66.03-18.56,23.35,13.11,31.67,42.67,18.56,66.03-13.1,23.36-42.67,31.67-66.03,18.56-23.36-13.1-31.67-42.67-18.56-66.03h0ZM827.79,741c8.67-15.45,28.24-20.96,43.69-12.28,15.45,8.67,20.95,28.24,12.28,43.69-8.67,15.45-28.24,20.95-43.69,12.28-15.45-8.67-20.95-28.24-12.28-43.69h0ZM1083.84,721.21c10.36,12.46,8.65,30.97-3.82,41.32-12.46,10.36-30.97,8.64-41.32-3.82-10.36-12.46-8.64-30.97,3.82-41.32,12.46-10.35,30.97-8.64,41.32,3.82h0ZM1016.24,450.66c6.44-11.48,20.97-15.56,32.45-9.12,11.48,6.44,15.56,20.97,9.12,32.45-6.44,11.48-20.97,15.56-32.45,9.12-11.48-6.44-15.56-20.97-9.12-32.45h0ZM920.98,593.45c11.14-19.85,36.27-26.92,56.13-15.78,19.85,11.14,26.92,36.27,15.78,56.13-11.14,19.85-36.27,26.92-56.13,15.78-19.85-11.14-26.92-36.27-15.78-56.13h0ZM1200.6,521.67c8.47-15.09,27.57-20.46,42.66-11.99,15.09,8.47,20.46,27.57,11.99,42.66-8.47,15.09-27.57,20.46-42.66,11.99-15.09-8.47-20.46-27.57-11.99-42.66h0ZM1270.27,372.86c12.07-21.5,39.29-29.15,60.79-17.09,21.5,12.06,29.15,39.29,17.09,60.79-12.06,21.5-39.29,29.15-60.79,17.09-21.5-12.06-29.15-39.29-17.09-60.79h0Z"/>
    <path class="cls-4" d="M297.55,490.18c-25.1-47.93-84.32-66.45-132.25-41.35-20.34,10.65-35.39,27.46-44.05,46.93l-152.8-45.17c3.52-15.98-.38-33.37-12.05-46.57-13.06-14.77-32.52-20.51-50.54-16.77.04,6.2.09,12.41.13,18.61,12.75-3.76,27.1-.14,36.49,10.47,12.92,14.61,11.55,36.94-3.06,49.87-9.33,8.25-21.81,10.66-32.97,7.53.03,5.81.07,11.62.1,17.43,15.62,3.03,32.42-.95,45.26-12.3,5.6-4.95,9.9-10.83,12.88-17.19l152.45,45.07c-7.36,23.85-5.68,50.49,6.81,74.34,25.1,47.93,84.32,66.45,132.25,41.35,47.93-25.1,66.45-84.32,41.35-132.25ZM240.26,592c-31.94,16.72-71.4,4.39-88.12-27.55-16.72-31.94-4.38-71.4,27.55-88.12,31.94-16.72,71.4-4.39,88.12,27.55,16.72,31.94,4.38,71.4-27.55,88.12Z"/>
    <path class="cls-4" d="M434.46,634.8c-7.95-2.39-16.03-2.82-23.71-1.57l-13.06-80.41c10.83-3.48,20.48-10.79,26.72-21.35,13.53-22.9,5.92-52.44-16.98-65.96-22.9-13.53-52.44-5.92-65.96,16.98-13.53,22.9-5.92,52.44,16.98,65.96,9.69,5.72,20.57,7.66,30.92,6.26l13.09,80.57c-15.8,5.28-28.87,17.89-34.02,35.05-2.15,7.16-2.71,14.42-1.89,21.4l-153.32,42.02c-6.31-24.15-21.78-45.9-44.96-59.6-46.58-27.51-106.68-12.05-134.19,34.54-12.66,21.43-16.21,45.71-11.83,68.37l-61.74,22.14c-1.29-4.15-2.97-8.23-5.05-12.22-10.65-20.34-29.58-33.54-50.49-37.65-.18,7.96-.39,15.93-.61,23.89,12.06,3.62,22.71,11.9,29.01,23.94,12.42,23.72,3.26,53.04-20.47,65.46-3.89,2.04-7.94,3.49-12.04,4.39-.41,8.67-.85,17.34-1.32,26.01.22-.03.43-.04.65-.07l45.71,112.33c-19.29,10.89-28.06,33.56-21.99,54.18l-39.44,20.65c-.43,3.92-.87,7.84-1.32,11.76l2.69,5.13c-.47-1.21-.98-2.41-1.53-3.6l44.28-23.19c12.66,21.38,40,29.33,62.26,17.67,23-12.05,31.89-40.47,19.85-63.47-10.43-19.92-33.15-29.25-53.99-23.57l-44.91-110.35c4.39-1.31,8.71-3.06,12.92-5.27,27.97-14.65,42.46-44.94,38.34-74.53l62.09-22.26c7.07,22.07,21.94,41.73,43.46,54.44,46.58,27.51,106.68,12.05,134.19-34.54,11.68-19.77,15.61-41.98,12.71-63.1l153.67-42.12c5.43,15.44,17.91,28.16,34.78,33.23,28.04,8.42,57.61-7.49,66.03-35.52,8.42-28.04-7.49-57.61-35.52-66.03ZM-45.88,1017.76c15.33-8.03,34.27-2.1,42.29,13.22,8.03,15.33,2.1,34.27-13.22,42.3-15.33,8.03-34.27,2.1-42.3-13.22-8.03-15.33-2.1-34.27,13.23-42.29ZM176.07,792.55c-18.33,31.04-58.37,41.35-89.42,23.01-31.04-18.33-41.35-58.37-23.01-89.42,18.33-31.04,58.38-41.35,89.42-23.01,31.04,18.33,41.35,58.37,23.01,89.42ZM367.31,535.02c-15.26-9.01-20.32-28.69-11.31-43.95,9.01-15.26,28.7-20.32,43.95-11.31,15.26,9.01,20.32,28.69,11.31,43.95-9.01,15.26-28.69,20.32-43.95,11.31ZM453.3,694.88c-5.61,18.68-25.31,29.28-44,23.67-18.68-5.61-29.28-25.31-23.67-44,5.61-18.68,25.31-29.28,44-23.67,18.68,5.61,29.28,25.31,23.67,44Z"/>
    <path class="cls-4" d="M1808.2-68.98c-17.52-33.46-58.85-46.38-92.31-28.86-33.45,17.52-46.38,58.85-28.86,92.31,2.59,4.94,5.69,9.43,9.22,13.44l-54.78,71.69c-16.8-9.88-38.17-11.13-56.71-1.42-26.72,13.99-38.09,45.77-27.2,73.19l-81.38,42.61c-19.43-27.72-56.89-37.38-87.68-21.26-7.89,4.13-14.64,9.6-20.12,15.96l-60.92-52.34c16.61-25.21,19.4-58.44,4.41-87.08-21.97-41.97-73.83-58.18-115.79-36.2-41.97,21.97-58.18,73.83-36.2,115.79,21.97,41.97,73.83,58.18,115.79,36.2,7.98-4.18,15.03-9.44,21.07-15.51l62.19,53.44c-9.35,18.93-9.83,41.91.71,62.05,17.52,33.45,58.85,46.38,92.31,28.86,8.24-4.31,15.23-10.07,20.83-16.8l153.23,110.94c-8.16,14.26-9.09,32.26-.91,47.89,7.26,13.87,20.14,22.89,34.38,25.74l1.38,128.04c-4.61.41-9.21,1.72-13.56,3.99-17.72,9.28-24.57,31.18-15.29,48.9,9.28,17.72,31.18,24.57,48.9,15.29,17.72-9.28,24.57-31.18,15.29-48.9-5.18-9.89-14.28-16.39-24.39-18.59l-1.37-127.77c7.41-.17,14.9-2,21.91-5.68,24.37-12.76,33.79-42.88,21.03-67.25-12.76-24.37-42.88-33.79-67.25-21.03-3.38,1.77-6.46,3.87-9.25,6.24l-154.93-112.17c7.83-16.45,9.03-35.85,2.2-53.74l81.91-42.89c17.06,21.6,47.59,28.72,72.86,15.48,15.83-8.29,26.27-22.82,29.89-39l39.18,8.1c-.64,7.76.83,15.79,4.71,23.19,10.89,20.8,36.6,28.84,57.4,17.95,5.81-3.04,10.62-7.23,14.3-12.15l256.24,146.33c-.15-3.35-.3-6.69-.43-10.04l-251.41-143.57c5.52-11.65,5.7-25.66-.74-37.96-10.89-20.8-36.6-28.84-57.4-17.95-10.69,5.6-18.01,15.1-21.12,25.84l-39.48-8.16c.79-10.5-1.26-21.35-6.5-31.37-2.44-4.66-5.43-8.85-8.83-12.54l54.3-71.06c20.2,13.78,47.15,16.26,70.33,4.12,33.45-17.52,46.38-58.85,28.86-92.31ZM1736.89,128.43c13.86-7.26,30.99-1.9,38.25,11.96,7.26,13.86,1.9,30.99-11.96,38.25-13.86,7.26-30.99,1.9-38.25-11.96-7.26-13.86-1.9-30.99,11.96-38.25ZM1685.21,614.05c6.18,11.81,1.62,26.4-10.19,32.58s-26.4,1.62-32.58-10.19c-6.18-11.81-1.62-26.4,10.19-32.58,11.81-6.18,26.4-1.62,32.58,10.19ZM1653.45,382.66c16.24-8.5,36.31-2.23,44.81,14.01,8.5,16.24,2.23,36.31-14.01,44.81-16.24,8.5-36.31,2.23-44.81-14.01-8.5-16.24-2.23-36.31,14.01-44.81ZM1261.72,138.42c-27.96,14.64-62.51,3.84-77.16-24.12-14.64-27.96-3.84-62.51,24.12-77.16,27.96-14.64,62.51-3.84,77.15,24.12,14.64,27.96,3.84,62.51-24.12,77.16ZM1440.83,272.65c-22.29,11.67-49.84,3.06-61.51-19.23-11.67-22.29-3.06-49.84,19.23-61.51,22.29-11.67,49.84-3.06,61.51,19.23,11.67,22.29,3.06,49.84-19.23,61.51ZM1629.42,163.47c-19.03,9.96-42.54,2.61-52.5-16.41-9.96-19.03-2.61-42.54,16.42-52.5,19.03-9.96,42.54-2.61,52.5,16.42,9.96,19.03,2.61,42.54-16.41,52.5ZM1768.22,2.09c-22.29,11.67-49.84,3.06-61.51-19.23-11.67-22.29-3.06-49.83,19.23-61.51,22.29-11.67,49.83-3.06,61.51,19.23,11.67,22.29,3.06,49.83-19.23,61.51Z"/>
  </g>
</svg>