<?xml version="1.0" encoding="UTF-8"?>
<svg id="Layer_1" data-name="Layer 1" xmlns="http://www.w3.org/2000/svg" viewBox="0 0 1720.35 783.75">
  <defs>
    <style>
      .cls-1 {
        fill: #bdccd4;
      }

      .cls-2 {
        opacity: .16;
      }

      .cls-3 {
        opacity: .22;
      }
    </style>
  </defs>
  <g class="cls-2">
    <rect class="cls-1" x="1484.9" y="492.52" width="6.57" height="76.35" transform="translate(838.67 1970.99) rotate(-85.35)"/>
    <rect class="cls-1" x="1318.41" y="549.77" width="6.57" height="126.53" transform="translate(604.2 1881.06) rotate(-85.38)"/>
    <rect class="cls-1" x="1320.19" y="545.71" width="6.57" height="90.89" transform="translate(626.38 1862.02) rotate(-85.32)"/>
    <rect class="cls-1" x="1333.44" y="365.13" width="6.58" height="126.53" transform="translate(802.83 1726.6) rotate(-85.41)"/>
    <rect class="cls-1" x="1420.93" y="424.84" width="6.58" height="112.15" transform="translate(-54.86 749.23) rotate(-28.94)"/>
    <polygon class="cls-1" points="1440.81 714.87 1435.06 718.06 1380.89 620.09 1386.63 616.91 1440.81 714.87"/>
    <polygon class="cls-1" points="1435.07 528.17 1429.32 531.35 1386.5 453.91 1392.25 450.73 1435.07 528.17"/>
    <polygon class="cls-1" points="1384.48 621.45 1379.21 617.51 1447.49 526.34 1454.23 528.39 1384.48 621.45"/>
    <polygon class="cls-1" points="1399.98 435.88 1394.72 431.94 1462.99 340.79 1469.74 342.83 1399.98 435.88"/>
    <polygon class="cls-1" points="1238.97 515.62 1233.7 511.68 1287.18 440.27 1293.61 442.73 1238.97 515.62"/>
    <rect class="cls-1" x="1590.27" y="344.4" width="6.57" height="112.14" transform="translate(5.14 820.88) rotate(-28.93)"/>
    <rect class="cls-1" x="1185.15" y="462.72" width="112.14" height="6.58" transform="translate(106.54 1151.79) rotate(-51.73)"/>
    <rect class="cls-1" x="1512.08" y="295.61" width="6.57" height="105.54" transform="translate(1044.57 1830.29) rotate(-85.32)"/>
    <polygon class="cls-1" points="1563.43 351.07 1568.59 355.14 1639.88 265.88 1632.87 263.01 1563.43 351.07"/>
    <polygon class="cls-1" points="1578.18 164.63 1583.34 168.69 1654.64 79.43 1647.61 76.57 1578.18 164.63"/>
    <polygon class="cls-1" points="1257.71 611.13 1263.54 608.08 1210.91 507.08 1203.93 508 1257.71 611.13"/>
    <rect class="cls-1" x="1530.63" y="153.07" width="6.57" height="61.24" transform="translate(1227.26 1697.83) rotate(-85.38)"/>
    <rect class="cls-1" x="1527.98" y="110.68" width="6.57" height="103.99" transform="translate(1243.46 1675.43) rotate(-85.29)"/>
    <polygon class="cls-1" points="1639.88 265.88 1634.13 269.06 1577.58 166.8 1583.33 163.62 1639.88 265.88"/>
    <polygon class="cls-1" points="1443.48 239.7 1438.31 235.64 1482.29 179.49 1488.44 182.39 1443.48 239.7"/>
    <polygon class="cls-1" points="1476.1 320.44 1470.29 323.52 1437.3 261.38 1442.45 256.96 1476.1 320.44"/>
    <rect class="cls-1" x="1390.92" y="197.91" width="112.15" height="6.57" transform="translate(392.97 1212.79) rotate(-51.74)"/>
    <polygon class="cls-1" points="1463.48 346.32 1469.3 343.28 1416.68 242.28 1409.69 243.2 1463.48 346.32"/>
    <path class="cls-1" d="M1694.82,54.76c-4.64-.21-4.41-2.39-3.52-6.5.68-3.12,1.63-6.18,2.29-9.33.76-3.61,1.42-7.22,2.14-10.82,3.35-5.5,5.9-12.15,4.86-18.02-.45-2.48-4.27-4-5.42-1.08-2.13,5.39-3.56,10.95-4.78,16.57-4.49,7.73-10.65,8.65-18.97,6.79.11-.54.21-1.08.32-1.62,1.56-8.14,1.51-17.09,5.67-24.42,1.83-3.22-3.3-5.77-5.12-2.57-3.94,6.93-4.19,14.53-5.47,22.25-1.5,9.07-3.44,18.15-6.27,26.9-.21.3-.37.67-.47,1.11l-.21,1.09c-.75,3.73,4.46,4.49,5.61,1.12,2.06-5.98,3.52-12.07,4.8-18.23,6.96,1.6,12.56,2.69,17.7-.78-.69,3.33-1.42,6.64-2.3,9.93-2.36,8.81.94,12.94,9.55,13.33,3.68.17,3.24-5.54-.41-5.7Z"/>
    <path class="cls-1" d="M1661.52,501.62c-2.1.85-10.49,5.79-12.11,1.62-1.5-3.87-.55-8.4.18-12.31.14-.75.31-1.52.47-2.29,5.21-6.28,9.04-13.77,9.16-21.44.04-2.57-3.5-3.39-5.01-1.65-4.81,5.56-8.2,13.59-9.92,21.61-5.69,6.87-13.08,12.28-19.5,11.81-5.94-.43-1.67-13.44-.18-16.71,1.63-3.57,3.57-7.02,5.75-10.27.85-1.29,1.83-2.47,2.82-3.64.68-.81,1.45-1.53,2.3-2.16,2.86-1.86,3.03-.03.53,5.51-2.73,2.41.46,7.18,3.22,4.74,9.85-8.7.86-22.42-9.42-12.87-8.18,7.6-14.85,21.92-13.23,33.17,1.77,12.36,15.27,7.14,21.87,2.57,1.55-1.07,3.11-2.29,4.65-3.59-.09,1.43-.13,2.84-.07,4.2.44,14.25,11.1,10.9,20.43,7.08,3.4-1.39,1.51-6.8-1.92-5.39Z"/>
    <path class="cls-1" d="M1389.73,732.29c-4.45.38-8.96,1.06-13.42.61-5.13-.53-1.37-11.97-.7-14.49.36-1.34,1.06-3.89,2.03-6.86,7.28-5.46,13.88-12.44,17.01-20.17.53-1.31-.07-3.33-1.58-3.72-10.41-2.71-16.71,9.85-20.31,20.46-4.54,3.19-9.37,5.79-13.79,7.59-9.55,3.88-11.87-3.61-8.75-11.81,1.19-3.12,4.36-6.08,6.68-8.33,1.36-1.32,2.87-2.45,4.41-3.55,3.92-2.81,7.04,1.7.34,2.7-3.65.54-2.83,6.2.83,5.67,11.75-1.74,10.52-19.12.09-15.34-11.8,4.29-20.26,16.64-19.23,29.07,1.03,12.36,15.63,8.21,22.64,4.69,1.4-.71,2.83-1.49,4.27-2.34-.12.45-.25.91-.36,1.31-1.46,5.54-3.73,13.46.52,18.35,4.29,4.92,14.8,2.27,20.15,1.82,3.68-.31,2.84-5.98-.83-5.67Z"/>
    <path class="cls-1" d="M1541.37,563.25c-1.97,12.17-6.16,24.37-11.81,35.56-.59-14.39,1.37-29.44-3.24-42.88-.77-2.24-4.5-2.42-5.27-.07-2.6,7.81-4.81,15.66-6.62,23.69-1.84,8.16-5.21,15.73-7.22,23.82-.89,3.59,4.79,4.38,5.67.83,1.74-7,4.84-13.47,6.5-20.52,1.15-4.91,2.34-9.78,3.65-14.6.32,4.94.06,9.93-.07,14.92-.22,8.32.49,16.58,1.74,24.79.47,3.03,4.07,3.12,5.47.79,8.29-13.8,14.27-29.6,16.86-45.5.59-3.64-5.09-4.46-5.67-.82Z"/>
    <path class="cls-1" d="M1656.71,2.17c-3.06,11.35-7.47,22.79-12.29,33.55-1.61,3.61-3.42,7.21-5.73,10.41-1.41,1.96-1.19-4.79-1.18-6.71.01-11,6.04-26.3,2-36.89-.8-2.07-3.32-2.51-4.84-.97-10.76,10.83-13.93,31.84-16.76,46.12-.72,3.63,4.9,4.75,5.61,1.13,2.23-11.29,4.75-27.74,11.54-38.47.13,6.88-2.2,15.24-2.75,20.96-.54,5.61-2.47,15.97,2.42,20.33,10.92,9.72,26.45-44.08,27.6-48.35.97-3.57-4.65-4.66-5.61-1.12Z"/>
    <path class="cls-1" d="M1718.73,69.55c-4.94-1.9-10.15-2.34-15.28-3.19,2.74-.96,5.79-1.51,8.13-2.52,4.31-1.84,7.07-5.23,6.67-10.06-.36-4.25-4.43-6.54-8.32-6.41-3.43.12-6.19,3.49-3.95,6.6,1.57,2.17,4.5,1.08,5.16-.83.06.01.12,0,.18.01,1.02.17,1.21,1.02,1.28,1.9.21,2.58-3.48,3.66-5.32,4.31-4.58,1.62-10.02,2.38-13.27,6.36-1.48,1.81-.49,4.05,1.58,4.71,6.7,2.15,13.98,1.69,20.55,4.22,3.42,1.32,6.02-3.79,2.58-5.11Z"/>
  </g>
  <g class="cls-3">
    <path class="cls-1" d="M994.36,783.63l.93.12,76.36-100.14-48.55-116.2-123.97-15.94-.93-.12-76.36,100.14,48.55,116.2,123.96,15.94ZM899.65,554.81l121.18,15.59,47.1,112.74-74.09,97.15-121.18-15.58-47.1-112.74,74.09-97.15Z"/>
    <path class="cls-1" d="M824.65,654.44c-.56-1.12-1.06-2.28-1.5-3.45l-101.77-13.09-2.19,2.99,105.46,13.56s0-.01,0-.02Z"/>
    <path class="cls-1" d="M649.77,529.63c-.56-1.12-1.06-2.27-1.5-3.44l-101.76-13.09-2.18,2.98,105.46,13.57s0-.01,0-.02Z"/>
    <path class="cls-1" d="M684.28,612.16l-34.87-83.47-1.84-1.35c-.78-.18-1.61-.35-2.43-.43l36.89,88.31,2.24-3.06Z"/>
    <path class="cls-1" d="M471.54,614.74l.93.12,76.36-100.14-48.55-116.2-123.97-15.94-.93-.12-76.35,100.13,48.54,116.2,123.97,15.95ZM376.83,385.92l121.19,15.58,47.1,112.75-74.09,97.16-121.18-15.59-47.1-112.74,74.09-97.15Z"/>
    <polygon class="cls-1" points="169.83 441.49 132.3 351.66 206.39 254.51 327.57 270.09 374.66 382.84 300.58 479.99 205.76 467.79 211.18 471.76 301.09 483.33 302.02 483.45 378.38 383.31 329.84 267.11 205.87 251.17 204.94 251.05 128.58 351.18 164.76 437.78 169.83 441.49"/>
    <path class="cls-1" d="M647.49,662.47c10.74-1.18-1.93,11.13-4.66,13.71-1.61,1.53-3.24,3.03-4.84,4.54-3.8,2.49-7.09,6.29-10.13,10.05-1.92,2.1-3.76,4.28-5.48,6.61-1.26,1.72,1.25,3.43,2.62,1.92,2.2-2.43,4.3-4.95,6.45-7.4,3.11-3.14,6.42-6.13,9.67-9.14,6-3.75,10.45,3.81,14.38,7.79,1.61,1.63,3.31,2.67,5.23,3.39-6.25,6.99-12.55,13.94-18.18,21.45-1.26,1.68,1.36,3.59,2.62,1.92,5.91-7.88,12.54-15.14,19.09-22.47.81-.04,1.26-.7,1.28-1.44,4.71-5.29,9.34-10.63,13.59-16.3,1.25-1.67-1.37-3.59-2.62-1.91-4.2,5.6-8.78,10.88-13.42,16.11-6.72-2.23-10.7-11.96-17.43-12.91,3.24-3.26,6.27-6.68,8.69-10.6,4.14-6.71-1.17-9.2-7.36-8.52-2.09.23-1.58,3.44.5,3.21Z"/>
    <path class="cls-1" d="M658.54,646.61c14.95-2.95,24.14-15.35,36.23-23.41-6.02,11.24-13.55,22.32-14.1,35.31-.02.5.15.88.42,1.18.33.99,1.49,1.68,2.47.79,5.78-5.29,10.8-11.23,15.98-17.1,1.42-1.61,12.5-15.78,15.17-10.04.89,1.9,3.86.6,2.98-1.29-2.46-5.27-6.38-4.66-10.48-1.38-8.68,6.96-15.12,16.66-22.96,24.62,1.87-12.98,10.47-24.14,16.02-35.78.59-1.24-.96-2.69-2.16-2.06-14.13,7.4-23.81,22.76-40.06,25.96-2.05.41-1.56,3.61.5,3.21Z"/>
    <path class="cls-1" d="M33.79,323.6c-1.51,11.08-2.68,22.34-3.34,33.5-.55,9.34-.61,19.84-4.23,28.73-2.3-8.7-5.19-17.23-8.77-25.5-4.21-9.71-11.12-17.91-13.78-28.31-.25-.99-1.11-1.27-1.87-1.07-.88-.09-1.83.43-1.8,1.57.61,23.57,5.13,47.22,1.84,70.76-.28,2.06,2.86,2.88,3.14.81,2.91-20.91-.14-41.79-1.36-62.7,2.45,5.34,5.6,10.37,8.48,15.54,5.82,10.41,9.33,22.49,12.1,34.03.34,1.41,2.3,1.5,2.97.34,4.41-7.69,5.2-16.87,5.94-25.54,1.19-13.78,1.95-27.61,3.81-41.33.28-2.05-2.86-2.88-3.14-.81Z"/>
    <path class="cls-1" d="M91.34,392.02c-9.86,4.59-5.13-9.35-4.39-13.31,1.07-5.7,1.91-11.5,2.79-17.24.56-3.62.92-7.27,1.2-10.92,1.1-4.97.84-10.84.57-16.18,0-3.13-.06-6.25-.14-9.38-.06-2.13-3.08-1.99-3.24.06-.23,2.92-.03,6.45.13,10.14,0,3.74-.05,7.51-.2,11.31-.64,5.06-2.38,9.51-6.67,11.98-6.5,3.73-15.78,2.64-23.05,2.68,1.05-11.95,2.39-23.89,2.19-35.8-.04-2.09-3.28-2.03-3.24.06.4,23.63-5.3,47.38-2.66,71.04.23,2.06,3.48,2.02,3.25-.06-1.19-10.65-.69-21.33.19-32,9.18-.1,19.9.89,27.68-4.91.55-.41,1.04-.86,1.5-1.34-.91,9.12-2.48,18.13-5.23,26.58-3.05,9.43,1.55,14.44,11.02,10.04,1.89-.88.19-3.64-1.69-2.77Z"/>
    <path class="cls-1" d="M113.69,387.34c2.92-3.25,6.5-8.73,1.29-11.15-3.98-1.84-10.28-.02-7.97,5.31.82,1.89,3.94,1.01,3.11-.92.45-.67.9-1.33,1.35-2,2.58,2.22,2.79,4.16.63,5.85-.73.85-1.59,1.61-2.41,2.37-.93.88-.34,2.36.77,2.7,6.57,2.03,14.49,10.97,8.33,17.7-3.79,4.15-12.13.56-15.18-2.68-1.44-1.53-3.68.82-2.25,2.34,4.94,5.24,15.09,7.73,20.46,1.85,2.83-3.11,2.62-8.84,1.02-12.43-1.89-4.24-5.09-7.12-9.16-8.92Z"/>
    <rect class="cls-1" x="978.91" y="715.11" width="83.16" height="2.99" transform="translate(-160.85 1115.79) rotate(-53.75)"/>
    <polygon class="cls-1" points="886.31 739.16 851.44 655.69 846.38 651.98 884.07 742.22 886.31 739.16"/>
    <polygon class="cls-1" points="1004.12 584.02 1009.9 581.55 913.05 568 914.54 571.48 1004.12 584.02"/>
    <rect class="cls-1" x="284.7" y="416.27" width="83.16" height="2.99" transform="translate(-203.56 433.76) rotate(-53.74)"/>
    <polygon class="cls-1" points="188.9 439.84 154.04 356.37 148.97 352.66 186.66 442.9 188.9 439.84"/>
    <polygon class="cls-1" points="309.92 285.19 315.69 282.72 218.84 269.16 220.34 272.64 309.92 285.19"/>
    <rect class="cls-1" x="410.98" y="548.19" width="3" height="83.17" transform="translate(-225.6 922.67) rotate(-82.58)"/>
    <polygon class="cls-1" points="383.95 405.98 384.56 399.73 326.2 478.2 329.97 478.56 383.95 405.98"/>
    <polygon class="cls-1" points="523.5 500.7 528.58 504.41 490.8 414.2 488.56 417.27 523.5 500.7"/>
    <path class="cls-1" d="M146.58,490.03c5.58-4.01,10.97-8.2,16.11-12.75,4.38-3.87,9.19-8.24,14.83-10.25-4.24,11.69-14.98,20.34-16.28,33.2-.08.79.33,1.33.89,1.57.65.5,1.63.57,2.25-.29,7.79-10.68,20.17-16.36,29.06-25.97,1.42-1.53-1.21-3.43-2.62-1.92-7.54,8.14-17.48,13.44-25.11,21.36,3.54-10.54,12.99-18.68,15.76-29.74.28-1.1-.45-2.44-1.76-2.17-6.18,1.24-11.16,5.09-15.94,9-6.38,5.23-12.49,10.59-19.2,15.41-1.71,1.23.32,3.76,2.01,2.54Z"/>
  </g>
</svg>