<?xml version="1.0" encoding="UTF-8"?>
<svg xmlns="http://www.w3.org/2000/svg" xmlns:xlink="http://www.w3.org/1999/xlink" viewBox="0 0 552.59 386.82">
  <defs>
    <style>
      .cls-1 {
        mix-blend-mode: luminosity;
        opacity: .07;
      }

      .cls-2 {
        fill: none;
      }

      .cls-3 {
        isolation: isolate;
      }

      .cls-4 {
        fill: #010101;
        fill-rule: evenodd;
      }

      .cls-5 {
        clip-path: url(#clippath);
      }
    </style>
    <clipPath id="clippath">
      <rect id="BG" class="cls-2" x="0" y="0" width="552.59" height="386.82"/>
    </clipPath>
  </defs>
  <g class="cls-3">
    <g id="Layer_1" data-name="Layer 1">
      <g class="cls-1">
        <g class="cls-5">
          <g>
            <path class="cls-4" d="M112.72,58.48c1.3-4.9,2.46-9.84,3.93-14.69,1.47-4.86,5.31-6.83,10.05-7.15,3.28-.22,6.65.35,9.87-.17,7.68-1.25,15.5-2.27,22.88-4.61,9.71-3.09,18.09-2.28,25.49,4.98,6.07,5.95,12.21,11.82,18.13,17.91,2.38,2.45,2.42,5.76.72,8.63-7.43,12.53-15.17,24.88-22.23,37.61-5.55,10.01-14,12.97-24.61,12.13-4.4-.35-9.02-.36-12.03-4.25-1.41-1.83-2.36-4.12-3.09-6.35-1.45-4.46-2.07-9.25-4-13.46-2.56-5.57-7.64-9.13-12.43-12.8-3.25-2.49-6.54-4.97-9.58-7.71-2.94-2.65-2.28-6.41-3.09-10.06Z"/>
            <path class="cls-4" d="M35.93,318.61c1.3-4.9,2.46-9.84,3.93-14.69,1.47-4.86,5.31-6.83,10.05-7.15,3.28-.22,6.65.35,9.87-.17,7.68-1.25,15.51-2.27,22.88-4.61,9.71-3.09,18.09-2.28,25.49,4.98,6.07,5.95,12.21,11.82,18.13,17.91,2.38,2.45,2.42,5.76.72,8.63-7.43,12.53-15.17,24.88-22.23,37.61-5.55,10.01-14,12.97-24.61,12.13-4.4-.35-9.02-.36-12.03-4.25-1.41-1.83-2.36-4.12-3.09-6.35-1.45-4.46-2.07-9.25-4-13.46-2.56-5.57-7.64-9.13-12.43-12.79-3.25-2.49-6.54-4.97-9.58-7.71-2.94-2.65-2.28-6.41-3.09-10.06Z"/>
            <path class="cls-4" d="M323.3,323.12c1.3-4.9,2.46-9.84,3.93-14.69,1.47-4.86,5.31-6.83,10.05-7.15,3.28-.22,6.65.35,9.87-.17,7.68-1.25,15.5-2.27,22.88-4.61,9.71-3.09,18.09-2.28,25.49,4.98,6.07,5.95,12.21,11.82,18.13,17.91,2.38,2.45,2.42,5.76.72,8.63-7.43,12.53-15.17,24.88-22.23,37.61-5.55,10.01-14,12.97-24.61,12.13-4.4-.35-9.02-.36-12.03-4.25-1.41-1.83-2.36-4.12-3.09-6.35-1.45-4.46-2.07-9.25-4-13.46-2.56-5.57-7.64-9.13-12.43-12.79-3.25-2.49-6.54-4.97-9.58-7.71-2.94-2.65-2.28-6.41-3.09-10.06Z"/>
            <path class="cls-4" d="M481.5,35.18c9.43.92,18.21-2.11,27.11-4.43,2.6-.68,5.28-1.15,7.95-1.46,7.24-.84,12.05,3.61,16.64,8.12,4.85,4.77,9.4,9.83,14.03,14.82,3.74,4.03,3.93,7.47.91,12.1-6.67,10.21-13.32,20.42-19.96,30.64-1.58,2.42-3.21,4.82-4.65,7.32-2.73,4.75-6.96,7.89-12.1,8.61-5.67.8-11.62.9-17.27.07-5.24-.77-8.1-4.68-8.98-10.28-.81-5.17-1.99-10.49-4.21-15.17-1.63-3.44-5.07-6.11-7.97-8.83-3.42-3.21-7.23-6-10.65-9.21-1.04-.98-1.77-2.66-1.96-4.11-1-7.29,1.1-14.12,3.82-20.73,2.67-6.49,8.31-7.81,14.6-7.65.9.02,1.8.11,2.7.17Z"/>
            <path class="cls-4" d="M208.9,195.96c-.6,3.85-1.2,7.69-1.79,11.54-.84,5.54-1.85,11.06-2.44,16.63-.54,5.07-.59,10.18-.9,15.27-.08,1.29-.22,2.6-.56,3.85-1.68,6.13-5.55,8.57-11.28,5.94-8.41-3.86-16.6-8.32-24.56-13.04-5.05-3-9.75-6.7-14.21-10.54-4.56-3.93-9.81-6.16-15.45-7.64-5.42-1.43-7.19-3.01-7.36-8.6-.1-3.57.32-7.19.91-10.72.99-5.86,6.32-7.31,10.58-9.75,8.33-4.77,16.79-9.33,25.04-14.22,5.01-2.97,10.01-3.53,15.13-.88,7.01,3.63,13.83,7.62,20.82,11.28,4.49,2.35,6.32,5.92,6.07,10.89Z"/>
            <path class="cls-4" d="M512.96,169.27c5.97.32,10.34,3.63,14.96,6.1,3.96,2.12,7.72,4.62,11.56,6.97,5.97,3.65,7.19,6.79,5.54,13.87-2.63,11.29-5.28,22.57-7.8,33.89-.59,2.62-.59,5.37-1.08,8.02-1.46,7.82-6.81,10.75-14.18,7.75-10.5-4.27-19.65-10.75-28.49-17.69-2.66-2.09-5.13-4.45-7.59-6.79-4.02-3.82-9.14-5.25-14.23-6.75-4.06-1.19-5.45-2.38-5.66-6.63-.3-5.87.38-11.66,4.32-16.42,1.16-1.4,2.75-2.58,4.36-3.44,9.8-5.2,19.64-10.35,29.54-15.37,2.79-1.42,5.82-2.36,8.74-3.51Z"/>
            <path class="cls-4" d="M630.74,96.77c-1.27,1.91-2.29,4.07-3.87,5.66-1.59,1.6-3.62,2.9-5.68,3.87-9.04,4.24-15.27,11.36-20.84,19.35-2.33,3.34-5.19,6.33-8.06,9.24-4.44,4.52-9.82,5.27-15.43,2.61-3.02-1.43-6.21-3.13-8.44-5.52-7.05-7.56-15.9-12.7-24.01-18.84-2.89-2.19-5.71-4.75-7.74-7.71-2.23-3.26-.31-6.61,3.62-7.3,3.14-.56,6.33-.88,9.47-1.43,10.1-1.76,16.88-8.19,22.54-16.16,2.32-3.26,4.42-6.69,6.92-9.81,3.78-4.71,6.59-5.36,12.02-2.86,7.9,3.63,15.73,7.41,23.55,11.2,2.41,1.17,4.82,2.44,7,3.98,3.66,2.59,6.49,5.93,7.81,10.33.28.94.41,1.93.6,2.9.18.16.35.33.53.49Z"/>
            <path class="cls-4" d="M538.22,310.89c-1.27,1.91-2.29,4.07-3.87,5.66-1.59,1.6-3.62,2.9-5.68,3.87-9.04,4.24-15.27,11.36-20.84,19.35-2.33,3.34-5.19,6.33-8.06,9.24-4.44,4.52-9.82,5.27-15.43,2.61-3.02-1.43-6.21-3.13-8.44-5.52-7.05-7.56-15.9-12.7-24.01-18.84-2.89-2.19-5.71-4.75-7.74-7.71-2.23-3.26-.31-6.61,3.62-7.3,3.14-.56,6.33-.88,9.47-1.43,10.1-1.76,16.88-8.19,22.54-16.16,2.32-3.26,4.42-6.69,6.92-9.81,3.78-4.71,6.59-5.36,12.02-2.86,7.9,3.63,15.73,7.41,23.55,11.2,2.41,1.17,4.82,2.44,7,3.98,3.66,2.59,6.49,5.93,7.81,10.33.28.94.41,1.93.6,2.9.18.16.35.33.53.49Z"/>
            <path class="cls-4" d="M381.15,281.42c-10.28.71-20.56,1.4-30.84,2.13-3.78.27-7.56.5-11.32.98-7.85,1-12.21-3.16-10.97-11.03.81-5.13,2.36-10.14,3.31-15.25.91-4.91,1.56-9.87,2.18-14.83.52-4.22,4.36-8.6,8.58-9.31,5.95-1.01,10.98-3.54,14.81-8.35,1.37-1.71,2.95-3.29,4.6-4.74,4.26-3.72,7.72-3.85,12.06-.22,6.77,5.66,11.96,12.62,16.08,20.39,3.42,6.45,7.01,12.83,10.12,19.43,2.02,4.29,3.67,8.83,4.8,13.43.89,3.63-.21,5.35-4.06,6.05-5.67,1.03-11.48,1.24-17.24,1.77-.69.06-1.4-.08-2.1-.13,0-.11-.02-.21-.02-.32Z"/>
            <path class="cls-4" d="M205.33,39.83c-2.93-.06-5.02-1.08-6.36-4.02-2.5-5.49-6.63-9.56-12.39-11.58-4-1.4-6.15-4.3-7.6-7.94-3.48-8.78-7.17-17.43-13.88-24.37-3.2-3.3-6.47-6.55-9.59-9.93-1.14-1.23-2.1-2.68-2.9-4.16-.99-1.82-.65-3.5,1.19-4.69,9.69-6.29,15.94-15.69,22.01-25.09,3.02-4.68,5.2-3.98,8.78-1.43,4.01,2.85,7.74,6.35,10.8,10.2,5.48,6.87,10.35,14.23,15.53,21.34.99,1.35,2.48,2.37,3.33,3.79.86,1.44,1.93,3.31,1.68,4.78-1.5,8.66-2.61,17.26-2.15,26.14.35,6.74-.63,13.56-1.13,20.33-.31,4.26-3.07,6.65-7.33,6.64Z"/>
            <path class="cls-4" d="M281.6,193.88c1.47.25,2.96.38,4.39.76,5.37,1.43,10.15.21,14.92-2.5,5.71-3.26,11.53-6.46,17.62-8.9,7.24-2.89,11.47.09,13.31,7.66.7,2.87,2.69,5.49,4.37,8.05,2.68,4.07,5.73,7.9,8.34,12.01,1.45,2.28.62,4.6-1.08,6.63-5.14,6.13-9.93,12.59-15.41,18.4-9.4,9.95-18.83,11.72-31.78,4.08-7.73-4.56-15.6-8.98-23.76-12.67-9.4-4.26-12.85-13.52-7.66-22.47,3.76-6.48,8.72-10.92,16.74-11.04Z"/>
            <path class="cls-4" d="M551.03,40.13c-2.47-.1-4.61-1.09-5.7-3.76-2.27-5.52-5.88-9.74-11.58-11.93-5.12-1.97-6.86-6.51-8.2-11.16-3.22-11.19-9.55-20.34-17.68-28.47-1.89-1.89-3.43-4.18-4.84-6.46-1.23-1.99-1.1-3.98,1.18-5.43,9.38-5.96,15.57-14.87,21.72-23.76,2.87-4.14,4.92-5.08,8.8-1.95,3.84,3.1,7.45,6.69,10.38,10.65,4.67,6.31,8.67,13.12,13.01,19.68,1.15,1.74,2.79,3.19,3.75,5.02.87,1.65,1.93,3.85,1.5,5.43-2.82,10.44-2.65,21.16-3.56,31.78-.45,5.17-.9,10.37-1.89,15.44-.67,3.45-3.13,4.86-6.87,4.92Z"/>
            <path class="cls-4" d="M273.51,78.84c-.33,7.17-2.02,8.86-8.9,11.48-3.97,1.52-7.78,3.59-11.44,5.78-3.9,2.33-5.83,6.09-6.53,10.59-1.05,6.82-4.12,12.79-8.74,17.78-1.23,1.33-4.19,2.16-5.94,1.68-6.82-1.88-13.6-4.05-20.13-6.76-4-1.65-7.7-4.21-11.2-6.82-6.05-4.51-6.99-9.4-2.7-15.56,4.05-5.82,8.74-11.19,13.14-16.76.12-.16.31-.28.39-.45,4.61-9.24,12.97-12.55,22.35-14.83,9.21-2.24,18.44-3.71,27.9-3.61,8.53.09,9.3.76,10.75,9.03.55,3.14.78,6.33,1.03,8.46Z"/>
            <path class="cls-4" d="M134.29,294.79c-7.04-.49-12.28-2.66-16.57-6.69-5.92-5.57-12.96-9.31-19.97-13.19-3.39-1.88-6.69-4.06-9.59-6.61-1.23-1.08-2.19-3.78-1.69-5.16.52-1.41,2.87-2.51,4.63-3,3.54-.99,7.29-1.21,10.82-2.22,6.58-1.88,11.21-6.42,14.97-11.92,2.38-3.47,4.51-7.1,6.9-10.56,2.8-4.05,6.22-5.01,10.71-3.26,8.85,3.45,17.72,6.84,26.55,10.33,4.87,1.92,8.86,5.06,11.9,9.32,2.64,3.7,1.99,7.82-1.82,10.45-3.62,2.5-7.59,4.49-11.13,7.08-2.61,1.91-4.97,4.27-7.11,6.71-4.53,5.18-8.69,10.69-13.34,15.76-1.5,1.63-4.04,2.3-5.27,2.96Z"/>
            <path class="cls-4" d="M142.43,128.75c-.67,1.54-1.15,3.82-2.46,5.44-6.29,7.81-14.52,12.71-24.23,15.06-3.75.91-6.88-.64-8.84-3.68-2.49-3.84-4.09-8.27-6.72-11.99-3.38-4.78-7.22-9.28-11.18-13.61-5.05-5.53-10.66-10.56-15.58-16.19-4.96-5.67-3.22-10.53,3.95-12.93,6.73-2.25,13.46-4.53,20.05-7.14,2.73-1.08,5.19-2.95,7.63-4.67,4.5-3.17,6.84-2.98,10.22,1.16,5.38,6.6,11.09,12.97,16.01,19.89,5.93,8.33,9.35,17.85,11.13,28.65Z"/>
            <path class="cls-4" d="M68.82,270.48c-.67,1.53-1.15,3.82-2.46,5.44-6.29,7.81-14.52,12.71-24.23,15.06-3.75.91-6.88-.64-8.84-3.68-2.49-3.84-4.09-8.27-6.72-11.99-3.38-4.79-7.22-9.28-11.18-13.61-5.05-5.53-10.66-10.56-15.58-16.19-4.96-5.67-3.22-10.53,3.95-12.93,6.73-2.25,13.46-4.53,20.05-7.14,2.74-1.08,5.19-2.95,7.63-4.67,4.5-3.17,6.84-2.98,10.22,1.17,5.38,6.6,11.09,12.97,16.01,19.89,5.93,8.33,9.35,17.85,11.13,28.65Z"/>
            <path class="cls-4" d="M460.9,290.28c-6.08-.72-10.66-1.73-14.13-5.01-7-6.6-15.19-11.36-23.41-16.16-2.37-1.38-4.7-3.15-6.39-5.27-2.59-3.25-1.33-6.51,2.71-7.51,3.09-.76,6.34-.85,9.45-1.51,9.2-1.96,16.02-7.43,21.47-14.86,2.19-2.99,4.32-6.03,6.69-8.87,2.98-3.57,6.22-4.25,10.49-2.52,8.16,3.31,16.36,6.52,24.45,9.98,5.64,2.42,10.62,5.71,12.4,12.16.91,3.3.09,5.69-2.83,7.44-3.78,2.26-7.84,4.09-11.44,6.58-3.49,2.41-6.73,5.24-9.76,8.22-4.33,4.28-8.16,9.09-12.62,13.22-2.22,2.06-5.36,3.13-7.08,4.09Z"/>
            <path class="cls-4" d="M484.57,124.17c.66,4.3-1.43,7.61-4.19,10.25-6.9,6.61-14.94,11.27-24.46,13.13-2.79.55-5.07-.33-6.67-2.41-1.57-2.03-3.16-4.27-3.93-6.67-3-9.32-8.52-16.81-15.45-23.56-4.71-4.58-9.39-9.28-12.42-15.31-2.32-4.6-1.71-7.8,3.02-9.81,4.94-2.1,10.28-3.21,15.28-5.18,4.6-1.82,9.13-3.95,13.42-6.42,8.93-5.13,8.18-4.53,13.68,2.52,4.3,5.51,8.55,11.07,12.55,16.8,4.18,5.99,6.36,12.87,7.94,19.93.5,2.22.84,4.48,1.25,6.72Z"/>
            <path class="cls-4" d="M477.82,363.56c2.26,3.72,1.59,7.58.06,11.08-3.84,8.75-9.48,16.14-17.57,21.51-2.37,1.57-4.81,1.63-7.09.33-2.23-1.28-4.55-2.73-6.19-4.65-6.34-7.46-14.31-12.27-23.3-15.84-6.1-2.43-12.23-4.98-17.34-9.39-3.9-3.36-4.57-6.55-.96-10.22,3.76-3.83,8.27-6.9,12.13-10.64,3.55-3.44,6.92-7.15,9.94-11.07,6.29-8.16,5.82-7.32,13.6-2.92,6.08,3.44,12.14,6.95,18.03,10.71,6.15,3.93,10.8,9.45,14.97,15.37,1.31,1.86,2.49,3.82,3.73,5.73Z"/>
            <path class="cls-4" d="M24.77,54.77c2.74,3.39,2.58,7.3,1.53,10.97-2.65,9.18-7.26,17.25-14.56,23.65-2.14,1.87-4.55,2.26-6.98,1.26-2.38-.97-4.87-2.1-6.75-3.79-7.27-6.55-15.81-10.26-25.2-12.61-6.37-1.59-12.78-3.31-18.43-7-4.31-2.82-5.39-5.88-2.31-10,3.21-4.29,7.28-7.94,10.61-12.15,3.06-3.89,5.91-8,8.38-12.29,5.15-8.92,4.8-8.02,13.09-4.7,6.49,2.6,12.96,5.28,19.29,8.23,6.62,3.08,11.96,7.93,16.88,13.25,1.55,1.67,2.98,3.45,4.46,5.18Z"/>
            <path class="cls-4" d="M350.53-31.07c2.34.52,4.68,1.01,7.01,1.57,11.51,2.76,23.14,3.02,34.86,1.7,5.06-.57,10.14-1.22,15.21-1.28,4.26-.05,5.75,2.22,4.96,6.29-1.21,6.19-3.27,12.11-8.28,16.18-3.25,2.65-7.1,4.7-10.93,6.48-2.95,1.37-6.24,2.19-9.47,2.77-7.2,1.3-12.46,5.28-17.14,10.7-2.96,3.44-6.42,6.72-10.27,9.06-6.11,3.71-9.73,5.13-15.62-1.17-2.6-2.78-5.22-5.53-7.75-8.37-1.66-1.87-3.35-3.75-4.72-5.82-2.48-3.74-3.37-7.75-.66-11.8,1.71-2.56,3.62-4.99,5.46-7.47,3.8-5.12,7.72-10.15,11.35-15.38,1.54-2.21,3.27-3.42,5.98-3.46Z"/>
            <path class="cls-4" d="M365.89,170.21c6.69-.4,13.43-.41,20.06-1.31,5.07-.69,9.79.05,14.49,1.48,4.97,1.52,9.88,3.22,14.77,4.96,5.09,1.81,7.85,7.34,5.77,12.96-1.28,3.46-3.41,6.85-5.93,9.55-5.29,5.7-11.17,10.75-15.02,17.8-3.28,6.02-9.3,7.01-15.54,3.02-4.87-3.12-9.28-6.96-14.11-10.17-2.36-1.57-5.13-2.57-7.81-3.59-5.22-1.98-10.57-3.62-15.74-5.74-3.61-1.48-5.31-4.74-6.08-8.44-1.95-9.42,4.61-19.51,14.05-21.04,3.6-.58,7.37-.09,11.06-.09,0,.21.02.41.03.62Z"/>
            <path class="cls-4" d="M215.92,157.92c-.35,4.05-.59,7.55-.99,11.02-.17,1.47-.51,2.97-1.06,4.34-1.37,3.36-3.03,4.2-6.31,2.72-5.19-2.34-10.19-5.09-15.33-7.52-9.95-4.7-20.4-7.51-31.41-8.48-5.36-.47-10.66-1.63-15.99-2.51-.69-.11-1.36-.35-2.01-.61-5.68-2.24-6.52-4.93-2.81-9.73,5.74-7.43,12.86-13.38,20.67-18.49,4.51-2.95,9.08-5.86,13.79-8.47,4.66-2.58,9.56-3.27,14.65-.81,7.12,3.44,14.31,6.73,20.25,12.12,3.73,3.38,5.92,7.38,5.9,12.6-.02,4.78.43,9.57.65,13.81Z"/>
            <path class="cls-4" d="M555.95,144.59c-.63,7.41-.97,13.32-1.71,19.17-.34,2.74-1.26,5.46-2.28,8.04-1.22,3.08-3.21,3.88-6.23,2.6-2.75-1.17-5.42-2.57-8.03-4.04-12.75-7.18-26.35-11.52-40.96-12.85-4.46-.41-8.93-1.28-13.27-2.41-6.3-1.65-7.17-5.01-3.08-9.96,8.18-9.93,18.82-16.66,29.75-23.01,1.9-1.11,3.82-2.18,5.76-3.23,6.27-3.39,12.46-3.2,18.54.53,4.01,2.46,8.26,4.6,11.95,7.47,3.01,2.34,6.07,5.17,7.78,8.47,1.59,3.07,1.42,7.05,1.79,9.23Z"/>
            <path class="cls-4" d="M293.06,60.84c-10.35.58-15.93-8.04-13.23-16.5,1.53-4.81-.09-9.48-1.82-14.02-2.34-6.15-3.28-12.55-3.14-19.11.06-3.18,1.47-5.29,4.66-6.15,4.66-1.25,8.12-4.22,10.93-7.99,1.73-2.31,3.58-3.17,6.42-1.78,2.77,1.36,5.98,1.92,8.57,3.51,2.72,1.67,5.82,3.7,7.23,6.38,3.86,7.35,9.23,12.92,16.2,17.26,3.19,1.99,6.24,4.35,8.93,6.97,2.63,2.56,2.04,5.04-1.15,6.73-1.21.64-2.53,1.25-3.87,1.48-7.68,1.33-13.46,5.72-18.77,11.07-2.95,2.97-6.11,5.76-9.37,8.4-3.47,2.8-7.57,4.03-11.59,3.74Z"/>
            <path class="cls-4" d="M172.48,389.87c-16.75.94-25.77-13.01-21.4-26.69,2.48-7.78-.15-15.33-2.95-22.68-3.79-9.95-5.3-20.3-5.09-30.92.1-5.14,2.37-8.56,7.53-9.95,7.53-2.02,13.13-6.83,17.69-12.92,2.79-3.73,5.8-5.12,10.39-2.87,4.48,2.2,9.67,3.1,13.87,5.68,4.41,2.71,9.42,5.99,11.69,10.32,6.25,11.88,14.93,20.9,26.21,27.93,5.16,3.22,10.09,7.03,14.45,11.27,4.26,4.15,3.3,8.15-1.87,10.89-1.97,1.04-4.1,2.02-6.26,2.4-12.42,2.15-21.77,9.26-30.36,17.92-4.77,4.81-9.88,9.33-15.16,13.58-5.61,4.53-12.25,6.52-18.74,6.06Z"/>
            <path class="cls-4" d="M438.2,158.61c.72,11.36-7.52,13.51-16.62,11.95-15.28-2.62-28.91-9.67-42.08-17.53-2.16-1.29-3.98-3.36-5.57-5.37-2.48-3.13-2.53-6.98.14-9.9,6.68-7.3,13.07-14.99,20.53-21.42,8.97-7.74,11.26-6.57,20.47.39,8.52,6.44,15.34,14.85,20.05,24.37,2.55,5.16,2.67,11.52,3.88,17.34-.27.05-.54.11-.81.16Z"/>
            <path class="cls-4" d="M434.98,303.75c.38,5.97-3.95,7.1-8.73,6.28-8.03-1.38-15.19-5.08-22.11-9.21-1.14-.68-2.09-1.76-2.93-2.82-1.3-1.65-1.33-3.67.07-5.2,3.51-3.84,6.87-7.87,10.79-11.25,4.71-4.06,5.91-3.45,10.75.2,4.48,3.38,8.06,7.8,10.54,12.81,1.34,2.71,1.4,6.05,2.04,9.11-.14.03-.28.06-.42.09Z"/>
            <path class="cls-4" d="M369.25,123.4c-2.22-.95-5.12-1.75-7.54-3.31-4.53-2.91-8.67-6.43-13.19-9.35-2.63-1.7-3.72-3.9-3.53-6.75.55-7.95,3.96-14.86,8.55-21.15,1.29-1.76,3.58-2.84,5.53-4.05,7.47-4.63,12.34-11.92,18.53-17.86,1.78-1.7,3.72-3.45,5.92-4.41,1.36-.59,3.97-.37,4.94.58,5.13,5.03,10.25,10.14,14.74,15.73,5.36,6.68,5.04,14.08-.1,20.71-5.68,7.33-11.82,14.32-18.07,21.18-2.44,2.68-5.53,4.87-8.64,6.78-1.77,1.09-4.17,1.16-7.15,1.9Z"/>
            <path class="cls-4" d="M85.17,173.49c-10.74-.49-20.27-4.7-29.73-9.11-4.98-2.32-10.04-4.55-14.75-7.35-8.42-5.02-10.18-12.09-4.49-19.93,4.91-6.76,10.41-13.2,16.3-19.13,4.8-4.84,8.28-4.76,14.02-1.1,11.48,7.32,20.83,16.87,27.61,28.64,3.57,6.2,3.63,13.46,3.48,20.5-.07,3.32-2.37,5.85-5.63,6.59-2.22.5-4.54.61-6.81.9Z"/>
            <path class="cls-4" d="M291.18,98.19c12.19.37,24.37.77,36.56,1.1,4.51.12,7.27,1.72,8.41,6.15,1.69,6.57,1.6,13.08-2.78,18.85-1.78,2.35-4.07,3.55-7.07,3.96-7.44,1.01-14.2,4.09-20.62,7.8-4.49,2.59-8.68,5.69-13.04,8.51-1.5.97-3.03,1.97-4.67,2.66-6.98,2.92-12.99-.69-13.78-8.26-.33-3.17-.11-6.45-.85-9.51-.91-3.75-2.39-7.41-3.96-10.96-3.42-7.77-.59-19.78,11.93-20.55,3.29-.2,6.58-.3,9.87-.45,0,.24,0,.47,0,.71Z"/>
            <path class="cls-4" d="M274.78,317.51c11.34.34,22.67.72,34.01,1.02,4.2.11,6.76,1.6,7.82,5.72,1.57,6.12,1.49,12.17-2.58,17.54-1.66,2.19-3.79,3.31-6.58,3.68-6.92.94-13.21,3.8-19.19,7.25-4.17,2.41-8.08,5.29-12.13,7.91-1.4.91-2.82,1.83-4.35,2.47-6.49,2.72-12.08-.64-12.82-7.69-.31-2.95-.1-6-.79-8.85-.85-3.49-2.22-6.89-3.68-10.2-3.19-7.23-.55-18.4,11.1-19.12,3.06-.19,6.12-.28,9.18-.42,0,.22,0,.44,0,.66Z"/>
            <path class="cls-4" d="M-.18,176.86c12.19.37,24.37.77,36.56,1.1,4.51.12,7.27,1.72,8.41,6.15,1.69,6.57,1.6,13.08-2.78,18.85-1.78,2.35-4.07,3.55-7.07,3.96-7.44,1.01-14.2,4.09-20.62,7.8-4.49,2.59-8.68,5.69-13.04,8.51-1.5.97-3.03,1.97-4.67,2.66-6.98,2.92-12.99-.69-13.78-8.26-.33-3.17-.11-6.45-.85-9.51-.91-3.75-2.39-7.41-3.96-10.96-3.42-7.77-.59-19.78,11.93-20.55,3.29-.2,6.58-.3,9.87-.45,0,.24,0,.47,0,.71Z"/>
            <path class="cls-4" d="M248.04,129.1c2.82.1,5.63,1.31,6.7,4.5,2.15,6.37,7.34,10.26,11.39,15.14,5.34,6.43,10.48,13.12,14.85,20.22,2.08,3.39,2.37,7.96,3.13,12.05.43,2.33-.72,4.46-2.94,5.43-2.45,1.07-5.04,2.14-7.65,2.43-8.42.93-16.42,3.35-24.29,6.32-3.72,1.41-6.82.18-9.07-4.59-2.72-5.77-5.36-11.68-7.03-17.8-1.63-6.02-1.98-12.39-2.94-18.61-.15-.97-.37-2-.85-2.83-3.67-6.47-2.33-12.12,3.66-16.74,4.35-3.36,9.06-5.41,15.02-5.52Z"/>
            <path class="cls-4" d="M544.41,327.73c2.82.1,5.63,1.31,6.7,4.5,2.15,6.37,7.34,10.26,11.39,15.14,5.34,6.43,10.48,13.12,14.85,20.22,2.08,3.39,2.37,7.96,3.13,12.05.43,2.33-.72,4.46-2.94,5.43-2.45,1.07-5.04,2.14-7.65,2.43-8.42.93-16.42,3.35-24.29,6.32-3.72,1.41-6.82.18-9.07-4.59-2.72-5.77-5.37-11.68-7.03-17.8-1.63-6.02-1.98-12.39-2.94-18.61-.15-.97-.37-2-.85-2.83-3.67-6.47-2.33-12.12,3.66-16.74,4.35-3.36,9.06-5.41,15.02-5.52Z"/>
            <path class="cls-4" d="M224.42,15.63c-.27-2.2-.89-6.55-1.3-10.93-.69-7.37,2.64-10.45,9.96-9.3,5.73.9,11.43,2.05,17.18,2.81,3.05.41,6.19.24,9.28.32,3.31.08,4.54,1.32,4.3,4.66-.74,10.09.55,19.88,3.49,29.59,1.8,5.95.18,11.72-4.23,16.05-1.7,1.67-4.81,2.22-7.37,2.58-2.21.3-4.64-.11-6.83-.71-7.41-2.03-14.08.02-20.45,3.51-3.16,1.73-6.35,2.28-9.81,1.62-3.42-.65-5.11-2.68-4.15-5.97,1.19-4.09,2.54-8.28,4.69-11.91,3.73-6.29,5.1-12.98,5.25-22.3Z"/>
            <path class="cls-4" d="M-33.16,118.56c-.35-2.87-1.17-8.57-1.7-14.3-.9-9.64,3.45-13.67,13.03-12.16,7.5,1.18,14.95,2.68,22.47,3.67,4,.53,8.09.32,12.14.41,4.33.1,5.94,1.73,5.62,6.1-.97,13.2.72,26.01,4.56,38.7,2.36,7.79.23,15.33-5.54,20.99-2.22,2.18-6.29,2.91-9.65,3.37-2.89.4-6.07-.15-8.94-.93-9.69-2.65-18.42.03-26.75,4.59-4.13,2.26-8.31,2.98-12.84,2.12-4.48-.85-6.68-3.5-5.42-7.81,1.56-5.35,3.32-10.83,6.14-15.58,4.87-8.22,6.67-16.97,6.87-29.17Z"/>
            <path class="cls-4" d="M331.64,89.58c-2.17-.33-4.35-.61-6.51-.99-8.33-1.46-16.53-.27-24.74,1.08-6.74,1.1-9.23-.42-10.95-6.94-.71-2.67-1.07-5.53-1.03-8.29.06-4.71,1.92-7,6.47-8.16,3.09-.79,6.28-1.23,9.45-1.66,5.96-.8,10.36-3.98,14.6-8.13,5.12-5.01,10.72-9.63,16.56-13.78,5.9-4.2,11.54-2.63,16.23,1.5,2.75,2.42,4.6,5.96,6.49,9.21.66,1.13.67,3.01.28,4.34-2.7,9.2-7.34,17.51-12.73,25.33-3.43,4.97-7.34,6.33-14.11,6.5Z"/>
            <path class="cls-4" d="M245.67,307.36c-9.18.36-16.25-3.93-22.95-9.65-6.15-5.26-12.87-9.83-19.12-14.99-4.53-3.74-9.03-7.62-12.91-12-3.14-3.54-2.31-6.44,1.84-8.9,2.99-1.78,6.18-3.26,9.4-4.57,3.64-1.48,6.76-.45,9.41,2.5,4.06,4.51,8.69,8.25,14.5,10.37,7.09,2.58,14.42,2.85,21.86,2.67,4.88-.12,9.81-.08,14.66.42,4.15.43,5.33,2.25,4.77,6.4-.29,2.15-1.06,4.26-1.76,6.33-1.67,4.92-3.42,9.81-5.18,14.71-1.43,3.99-4.13,6.23-8.55,6.23-1.99,0-3.99.31-5.98.48Z"/>
            <path class="cls-4" d="M575.43,303.5c-12.32.27-19.77-2.64-26.15-9.04-5-5.02-10.84-9.2-16.18-13.9-4.28-3.77-8.66-7.49-12.46-11.71-4.22-4.69-3.65-7.79,1.73-10.89,3.52-2.03,7.39-3.53,11.22-4.95,2.7-1,5.17-.07,6.94,2.25,7.67,10.09,18.19,14.04,30.46,14.08,4.4.02,8.81-.48,13.21-.52,2.18-.02,4.42.21,6.53.74,3.09.78,4.25,2.64,3.23,5.64-2.06,6.05-4.45,11.99-6.72,17.96-.49,1.3-.97,2.63-1.64,3.84-2.83,5.16-5.25,6.26-10.16,6.5Z"/>
            <path class="cls-4" d="M52.26,51c-12.32.27-19.77-2.64-26.15-9.04-5-5.02-10.84-9.2-16.18-13.9-4.28-3.77-8.66-7.49-12.46-11.71-4.22-4.69-3.65-7.79,1.73-10.89C2.71,3.42,6.58,1.92,10.4.5c2.7-1,5.17-.07,6.94,2.26,7.67,10.09,18.19,14.04,30.46,14.08,4.4.02,8.81-.48,13.21-.52,2.18-.02,4.42.21,6.53.74,3.09.78,4.25,2.64,3.23,5.64-2.06,6.05-4.45,11.99-6.72,17.96-.5,1.3-.97,2.63-1.64,3.84-2.83,5.16-5.25,6.26-10.16,6.5Z"/>
            <path class="cls-4" d="M293.15,170.09c.64-4.14,1.19-8.3,1.95-12.42.66-3.58,2.73-6.19,6.05-7.73,6.26-2.91,12.46-5.96,18.8-8.66,6.92-2.94,13.77-5.98,19.66-10.72,3.24-2.61,6.55-1.99,9.5-.19,7.57,4.6,12.61,11.28,14.69,19.98.74,3.09-.31,4.59-3.42,4.86-5.88.52-11.44,2.08-16.4,5.26-2.39,1.54-5.12,3.25-6.47,5.59-4.33,7.48-11.25,10.07-19.09,11.38-6.11,1.02-12.22,2.04-18.33,3.1-4.57.8-5.93-.1-6.42-4.7-.2-1.88-.03-3.79-.03-5.69-.16-.02-.33-.05-.49-.07Z"/>
            <path class="cls-4" d="M468.46-12.89c-.79,6.03-1.04,12.19-2.56,18.03-.98,3.78-3.4,7.41-5.91,10.5-2.65,3.26-7.19,3.42-10.73,1.43-8.37-4.7-16.74-9.39-25.15-14.01-5.56-3.05-7.78-7.44-5.26-13.23,3.66-8.43,7.78-16.7,12.26-24.73,3.08-5.53,8.97-7.66,13.16-5.29,2.38,1.34,4.18,3.67,6.37,5.39,3.31,2.58,6.55,5.34,10.15,7.44,5.69,3.32,8.24,7.95,7.67,14.47Z"/>
            <path class="cls-4" d="M27.31,302.01c-.79,6.03-1.04,12.19-2.56,18.03-.98,3.78-3.4,7.41-5.91,10.5-2.65,3.26-7.19,3.42-10.73,1.43-8.37-4.7-16.73-9.39-25.15-14.01-5.56-3.05-7.78-7.44-5.26-13.23,3.66-8.43,7.78-16.7,12.26-24.73,3.08-5.53,8.97-7.66,13.16-5.29,2.38,1.34,4.18,3.67,6.37,5.39,3.31,2.58,6.55,5.34,10.15,7.44,5.69,3.32,8.24,7.95,7.67,14.47Z"/>
            <path class="cls-4" d="M117.43-10.77c-.76,6.54-1.19,13.02-2.42,19.36-.52,2.67-2.41,5.26-4.23,7.44-3.14,3.77-7.19,4.19-12.22,1.67-8.42-4.2-16.81-8.46-25.19-12.73-5.15-2.63-7.66-6.78-5.81-12.01,3.45-9.78,6.84-19.72,13.46-27.99,3.16-3.94,8.4-6.09,13.6-1.73,5.48,4.59,11.61,8.42,17.54,12.45,4.97,3.38,4.98,8.52,5.26,13.54Z"/>
            <path class="cls-4" d="M353.9,35.84c.44-3.77,2.54-5.78,5.23-7.13,10.91-5.45,21.91-10.74,32.82-16.21,2.02-1.01,3.92-2.44,5.56-4.01,6.72-6.43,12.95-6.51,19.76-.28,2.12,1.94,4.47,3.68,6.94,5.15,5.87,3.5,6.15,5.21,1.85,10.91-3.7,4.9-8.31,9.15-12.84,13.35-3.94,3.65-8.26,6.88-12.52,10.16-2.28,1.75-4.73,1.96-7.57.71-7.75-3.4-16.1-3.81-24.4-4.27-4.11-.23-8.35-.2-11.51-3.35-1.39-1.39-2.24-3.33-3.33-5.02Z"/>
            <path class="cls-4" d="M412.04,251.46c-5.61.01-8.38-2.68-9.67-8.09-1.04-4.33-2.81-8.51-4.57-12.61-.86-2.01-.67-3.61.8-4.88,2.26-1.94,4.55-4.01,7.17-5.35,10.8-5.52,16.85-14.98,22.02-25.37,1.09-2.18,3.04-4.25,5.1-5.56,3.05-1.94,5.46-.97,7.27,2.17,1.75,3.03,3.42,6.11,5.1,9.18,2.16,3.95,5.05,7.12,9.14,9.21,4.1,2.1,4.5,4.84,1.42,8.15-9.56,10.28-19.93,19.66-31.21,28.02-3.74,2.77-7.74,4.99-12.58,5.11Z"/>
            <path class="cls-4" d="M81.28,254.92c-6.17-.12-8.94-2.63-10.7-7.74-1.51-4.4-3.6-8.62-5.75-12.76-1.14-2.2-.87-3.99.73-5.42,2.82-2.52,5.75-4.96,8.87-7.08,6.92-4.68,11.25-11.25,14.42-18.76.94-2.21,1.82-4.45,2.87-6.61,1.26-2.59,3.23-4.26,6.3-4.39,2.86-.12,3.84,1.96,5.13,3.92,2.81,4.25,5.59,8.55,8.78,12.51,1.57,1.95,3.85,3.48,6.09,4.68,5.12,2.74,5.86,4.89,1.91,9.2-7.29,7.96-14.88,15.64-22.33,23.45-3.73,3.9-8.07,6.87-13.28,8.4-1.24.36-2.54.5-3.04.6Z"/>
            <path class="cls-4" d="M248.23,222.52c-1.21,6.16,1.81,11.3,3.66,16.73,1.32,3.87,2.83,7.69,4.01,11.6,1.29,4.29-.47,7.55-4.93,8.16-4.09.57-8.39.7-12.46.07-6.59-1.01-13.2-2.36-19.53-4.4-5.48-1.76-7.77-4.25-5.68-10.69,1.14-3.51,2.02-7.11,3.19-10.62,2.62-7.89,1.11-16.13,2.19-24.14.52-3.84,1.4-7.66,2.42-11.41.84-3.09,2.67-3.92,5.5-2.36,8.38,4.62,15.36,10.88,20.09,19.25,1.24,2.19,1.07,5.18,1.55,7.8Z"/>
            <path class="cls-4" d="M573.67,257c-7.79-.75-16.2-1.87-24.15-5.23-5.62-2.37-6.52-4.63-4.45-10.28,2.19-6,4.5-11.99,6.18-18.14,1.12-4.09.93-8.53,1.84-12.69,1.12-5.15,2.65-10.23,4.25-15.25.91-2.86,3.03-3.56,5.72-2.01,7.46,4.3,13.35,10.28,17.19,17.94,1.21,2.41,1.41,5.75.95,8.48-.99,5.91.66,11.31,2.05,16.82.76,3,1.67,5.97,2.31,9,1.61,7.61-1.23,11.12-9.07,11.36-.7.02-1.4,0-2.82,0Z"/>
            <path class="cls-4" d="M-42.1-15.47c-1.37-3.76-2.67-7.55-4.14-11.27-1.5-3.81-.53-5.51,3.55-5.58,6.92-.13,13.33,1.99,19.77,4.27,3.97,1.4,8.28,1.84,12.42,2.8,5.65,1.31,11.41,2.33,16.89,4.16,4.22,1.41,6.2,5.62,5.44,9.33-.91,4.42-4.09,7.05-8.94,7.21-7.33.23-14.49,1.28-21.6,3.25C-22.85-.17-27.3.16-31.62.18c-4.81.02-7.22-2.35-8.49-6.95-.79-2.86-1.69-5.68-2.54-8.52.18-.06.36-.12.54-.18Z"/>
            <path class="cls-4" d="M458.55,33.93c-2.05,8-4.03,16.03-6.22,23.99-.34,1.22-1.57,2.29-2.57,3.23-7.22,6.73-15.25,12.34-24.05,16.76-4.84,2.43-5.83,2.07-9.46-2-2.97-3.33-6.01-6.63-8.69-10.19-1.99-2.64-1.59-5.56.79-7.9,5.77-5.67,11.53-11.37,17.48-16.85,3.37-3.11,6.5-6.26,7.75-10.81.91-3.33,3.16-4.99,6.46-4.51,4.71.68,9.41,1.58,14,2.8,2.39.64,4.17,2.44,4.53,5.49Z"/>
            <path class="cls-4" d="M43.34,344.72c-2.05,8-4.03,16.03-6.22,23.99-.34,1.22-1.57,2.29-2.57,3.23-7.22,6.73-15.25,12.34-24.05,16.76-4.84,2.43-5.83,2.07-9.46-2-2.97-3.33-6.01-6.63-8.69-10.19-1.99-2.64-1.59-5.56.79-7.9,5.77-5.67,11.53-11.37,17.48-16.85,3.37-3.1,6.5-6.26,7.75-10.81.91-3.33,3.16-4.99,6.46-4.51,4.71.68,9.41,1.57,14,2.8,2.39.64,4.17,2.44,4.53,5.49Z"/>
            <path class="cls-4" d="M86.38,185.87c-1.62,6.31-3.18,12.64-4.91,18.92-.27.96-1.23,1.8-2.03,2.54-5.69,5.31-12.02,9.73-18.97,13.22-3.82,1.91-4.6,1.63-7.46-1.58-2.34-2.63-4.74-5.23-6.86-8.04-1.57-2.08-1.26-4.38.63-6.23,4.55-4.47,9.09-8.96,13.78-13.29,2.66-2.45,5.13-4.94,6.11-8.53.72-2.63,2.49-3.94,5.09-3.56,3.71.54,7.42,1.24,11.04,2.21,1.88.5,3.29,1.93,3.58,4.33Z"/>
            <path class="cls-4" d="M109.2,36.89c-1.27,6.86-2.24,13.79-3.89,20.56-1.38,5.63-6.47,8.51-10.66,11.8-4.62,3.63-9.58,6.85-14.55,10-5.05,3.2-7.8,3.41-11.45-1.2-2.28-2.89-5.15-5.31-7.39-8.22-2.5-3.26-2.87-6.87.11-10.15,4.37-4.8,8.63-9.73,13.37-14.15,4.3-4.01,8.53-7.81,9.7-13.95.41-2.14,1.89-3.36,4.2-3.68,5.5-.76,10.76-.02,15.89,2.01,3.19,1.26,4.97,3.3,4.67,6.99Z"/>
            <path class="cls-4" d="M123.73,31.11c-8.01-.02-10.32-3.92-6.57-10.25,2.34-3.95,5.25-7.59,7.44-11.62,1.56-2.87,2.33-6.16,3.49-9.24,1.73-4.57,3.28-9.22,5.35-13.63.82-1.76,2.58-3.48,4.33-4.29,1.43-.66,3.87-.55,5.22.28,8.2,5,15.22,11.46,21.11,18.99,2.06,2.63,3.45,6.09,4.16,9.39.88,4.11-1.12,7.38-5,8.92-11.81,4.67-23.6,9.46-36.33,11.14-1.29.17-2.59.25-3.2.31Z"/>
            <path class="cls-4" d="M474.93,30.29c-2.6-.22-4.62-.21-6.57-.59-3.47-.68-5.07-3.13-3.7-6.42,1.33-3.18,3.09-6.33,5.28-8.98,4.47-5.4,6.7-11.72,8.89-18.2,1.36-4.04,3.27-7.97,5.48-11.62,2.69-4.43,7.11-4.98,11.04-1.46,5.49,4.93,10.98,9.92,15.95,15.36,2.48,2.72,4.57,6.28,5.51,9.81,1.52,5.71-.83,9.88-6.79,12.02-9.01,3.25-18.26,5.87-27.45,8.61-2.65.79-5.45,1.05-7.64,1.46Z"/>
            <path class="cls-4" d="M39.5,113.54c-2.03.56-3.56,1.14-5.15,1.4-2.82.46-4.72-.95-4.6-3.82.12-2.79.56-5.67,1.48-8.29,1.87-5.35,1.79-10.76,1.62-16.29-.1-3.44.24-6.96.89-10.34.8-4.12,3.99-5.77,7.95-4.2,5.55,2.19,11.11,4.44,16.4,7.16,2.65,1.36,5.23,3.47,6.93,5.89,2.75,3.9,2.14,7.72-1.77,11.02-5.92,4.99-12.19,9.58-18.38,14.23-1.79,1.34-3.84,2.33-5.38,3.25Z"/>
            <path class="cls-4" d="M266.3,252.91c-.34-4.38-.62-8.76-1.03-13.14-.3-3.24,1.49-4.76,4.89-3.93,6.28,1.54,12.27,3.86,17.41,7.83,6.21,4.81,13.52,7.29,20.56,10.41,3.73,1.66,7.38,3.58,10.83,5.75,3.42,2.15,4.86,6.6,3.69,9.89-1.5,4.24-5.16,6.68-9.79,6.09-4.96-.63-9.86-1.71-14.81-2.36-3.86-.5-7.79-.48-11.65-.98-5.15-.66-10.31-1.41-15.38-2.48-3.17-.67-4.92-3.82-5.03-8.05-.08-3-.02-6-.02-9.01.11,0,.22-.02.32-.03Z"/>
            <path class="cls-4" d="M123.55,153.1c3.67,1.36,7.46,2.4,10.9,4.12,4.79,2.4,9.6,4.93,13.87,8.12,4.09,3.06,3.75,7.83-.45,10.88-4.43,3.21-9.26,5.85-13.76,8.97-2.34,1.63-4.38,3.73-6.46,5.71-1.37,1.31-2.48,2.91-3.89,4.16-3.13,2.77-7.19,3.99-10.45-.83-2.74-4.05-5.8-7.95-8-12.28-1.05-2.06-1.17-5.22-.44-7.45,2.63-8.01,8.26-14.04,14.41-19.55,1.03-.92,2.65-1.18,4.26-1.86Z"/>
            <path class="cls-4" d="M442.7,176.18c.23-5.22,2.89-8.97,5.61-12.47,2.68-3.45,5.96-6.45,9.09-9.53,3.08-3.03,6.81-3.93,10.76-2.09,6.04,2.81,12.34,5.34,17.83,9.03,6.27,4.22,5.5,10.25-1.19,13.9-8.19,4.46-16.19,9.1-22.53,16.17-1.21,1.35-3.06,2.26-4.77,3-2.47,1.07-4.84.59-6.32-1.81-2.72-4.42-5.32-8.92-7.85-13.45-.5-.9-.49-2.09-.63-2.75Z"/>
            <path class="cls-4" d="M294.83,308.44c-5.8,0-11.59.03-17.39,0-5.88-.04-7.09-1.68-5.81-7.37,1.63-7.23,6.02-12.82,10.97-17.92,1.26-1.3,4.12-1.92,6.01-1.57,7.03,1.3,13.88,1.03,20.8-.67,5.5-1.35,10.83,1.26,13.51,6.21.97,1.78.93,3.39-.48,4.96-3.4,3.79-6.68,7.7-10.15,11.43-3.15,3.38-7.34,4.27-11.77,4.35-1.9.03-3.8,0-5.7,0,0,.19,0,.39,0,.58Z"/>
          </g>
        </g>
      </g>
    </g>
  </g>
</svg>