<?xml version="1.0" encoding="UTF-8"?>
<svg id="Layer_2" xmlns="http://www.w3.org/2000/svg" version="1.1" viewBox="0 0 1982.5 583.6">
  <!-- Generator: Adobe Illustrator 29.2.1, SVG Export Plug-In . SVG Version: 2.1.0 Build 116)  -->
  <defs>
    <style>
      .st0, .st1 {
        fill: #fff;
        fill-rule: evenodd;
      }

      .st1 {
        isolation: isolate;
      }

      .st1, .st2 {
        opacity: .2;
      }
    </style>
  </defs>
  <g id="Artboard_1">
    <g class="st2">
      <path class="st0" d="M1726.4,515.6c16.4,31.3,55.1,43.4,86.4,27,13.3-7,23.1-18,28.8-30.7l99.9,29.5c-2.3,10.5.2,21.8,7.9,30.4,8.5,9.7,21.3,13.4,33,11,0-4,0-8.1,0-12.2-8.3,2.5-17.7,0-23.8-6.8-8.4-9.5-7.6-24.2,2-32.6,6.1-5.4,14.3-7,21.6-4.9,0-3.8,0-7.6,0-11.4-10.2-2-21.2.6-29.6,8-3.7,3.2-6.5,7.1-8.4,11.2l-99.7-29.5c4.8-15.6,3.7-33-4.4-48.6-16.4-31.3-55.1-43.4-86.4-27s-43.4,55.1-27,86.4h0ZM1763.9,449.1c20.9-10.9,46.7-2.9,57.6,18,10.9,20.9,2.9,46.7-18,57.6-20.9,10.9-46.7,2.9-57.6-18-10.9-20.9-2.9-46.7,18-57.6Z"/>
      <path class="st0" d="M1636.9,421.1c5.2,1.6,10.5,1.8,15.5,1l8.5,52.6c-7.1,2.3-13.4,7-17.5,14-8.8,15-3.9,34.3,11.1,43.1s34.3,3.9,43.1-11.1c8.8-15,3.9-34.3-11.1-43.1-6.3-3.7-13.4-5-20.2-4.1l-8.6-52.7c10.3-3.5,18.9-11.7,22.2-22.9,1.4-4.7,1.8-9.4,1.2-14l100.2-27.5c4.1,15.8,14.2,30,29.4,39,30.4,18,69.7,7.9,87.7-22.6,8.3-14,10.6-29.9,7.7-44.7l40.4-14.5c.8,2.7,1.9,5.4,3.3,8,7,13.3,19.3,21.9,33,24.6.1-5.2.2-10.4.4-15.6-7.9-2.4-14.8-7.8-19-15.6-8.1-15.5-2.1-34.7,13.4-42.8,2.6-1.3,5.2-2.3,7.9-2.9.3-5.7.6-11.3.9-17-.1,0-.3,0-.4,0l-29.9-73.4c12.6-7.1,18.3-21.9,14.4-35.4l25.8-13.5c.3-2.6.6-5.1.9-7.7l-1.8-3.3c.3.8.6,1.6,1,2.3l-28.9,15.2c-8.3-14-26.2-19.2-40.7-11.6-15,7.9-20.8,26.5-13,41.5,6.8,13,21.7,19.1,35.3,15.4l29.4,72.1c-2.9.9-5.7,2-8.4,3.4-18.3,9.6-27.8,29.4-25.1,48.7l-40.6,14.5c-4.6-14.4-14.3-27.3-28.4-35.6-30.4-18-69.7-7.9-87.7,22.6-7.6,12.9-10.2,27.4-8.3,41.2l-100.5,27.5c-3.6-10.1-11.7-18.4-22.7-21.7-18.3-5.5-37.7,4.9-43.2,23.2-5.5,18.3,4.9,37.7,23.2,43.2h0ZM1950.9,170.7c-10,5.2-22.4,1.4-27.7-8.6s-1.4-22.4,8.6-27.6,22.4-1.4,27.7,8.6,1.4,22.4-8.7,27.6h0ZM1805.9,318c12-20.3,38.2-27,58.4-15,20.3,12,27,38.2,15,58.5s-38.2,27-58.4,15c-20.3-12-27-38.2-15-58.5ZM1680.8,486.3c10,5.9,13.3,18.8,7.4,28.7s-18.8,13.3-28.7,7.4c-10-5.9-13.3-18.8-7.4-28.7,5.9-10,18.8-13.3,28.7-7.4h0ZM1624.6,381.8c3.7-12.2,16.6-19.1,28.8-15.5s19.1,16.5,15.5,28.8c-3.7,12.2-16.6,19.1-28.8,15.5-12.2-3.7-19.1-16.5-15.5-28.8Z"/>
    </g>
    <path class="st1" d="M138.7,68.5c12.3,6.4,26.6,5.1,37.3-2.2l28.8,37.7c-1.8,2-3.4,4.2-4.7,6.7-2.8,5.3-3.9,11.1-3.4,16.7l-20.9,4.3c-1.6-5.7-5.5-10.8-11.2-13.7-11-5.8-24.7-1.5-30.5,9.5-3.4,6.5-3.3,14-.4,20.1L.2,223.8c0,1.8-.2,3.6-.2,5.3l136-77.7c1.9,2.6,4.5,4.8,7.6,6.4,11,5.8,24.7,1.5,30.5-9.5,2.1-3.9,2.8-8.2,2.5-12.3l20.8-4.3c1.9,8.6,7.5,16.3,15.9,20.7,13.4,7,29.6,3.2,38.7-8.2l43.5,22.8c-3.6,9.5-3,19.8,1.2,28.5l-82.2,59.5c-1.5-1.3-3.1-2.4-4.9-3.3-12.9-6.8-28.9-1.8-35.7,11.2s-1.8,28.9,11.2,35.7c3.7,2,7.7,2.9,11.6,3l-.7,67.8c-5.4,1.2-10.2,4.6-12.9,9.9-4.9,9.4-1.3,21,8.1,26,9.4,4.9,21,1.3,25.9-8.1,4.9-9.4,1.3-21-8.1-26-2.3-1.2-4.8-1.9-7.2-2.1l.7-68c7.6-1.5,14.4-6.3,18.2-13.7,4.3-8.3,3.9-17.9-.5-25.4l81.3-58.9c3,3.6,6.7,6.6,11,8.9,17.8,9.3,39.7,2.4,49-15.3,5.6-10.7,5.3-22.9.4-32.9l33-28.4c3.2,3.2,6.9,6,11.2,8.2,22.3,11.7,49.8,3.1,61.5-19.2,11.7-22.3,3.1-49.8-19.2-61.5-22.3-11.7-49.8-3.1-61.5,19.2-8,15.2-6.5,32.8,2.3,46.2l-32.3,27.8c-2.9-3.4-6.5-6.3-10.7-8.5-16.3-8.6-36.2-3.4-46.5,11.3l-43.2-22.6c5.8-14.6-.3-31.4-14.4-38.8-9.8-5.2-21.2-4.5-30.1.8l-29.1-38c1.9-2.1,3.5-4.5,4.9-7.1,9.3-17.8,2.4-39.7-15.3-49-17.8-9.3-39.7-2.4-49,15.3-9.3,17.8-2.4,39.7,15.3,49h0ZM167.6,144.5c-3.9,7.4-12.9,10.2-20.3,6.4-7.4-3.9-10.2-12.9-6.4-20.3,3.9-7.4,12.9-10.2,20.3-6.3s10.2,12.9,6.4,20.3ZM205.9,376.6c6.3,3.3,8.7,11,5.4,17.3-3.3,6.3-11,8.7-17.3,5.4-6.3-3.3-8.7-11-5.4-17.3,3.3-6.3,11-8.7,17.3-5.4ZM212.9,283c-4.5,8.6-15.2,12-23.8,7.4s-11.9-15.2-7.4-23.8,15.2-11.9,23.8-7.4c8.6,4.5,11.9,15.2,7.4,23.8ZM400.6,88.6c7.8-14.8,26.1-20.6,41-12.8,14.8,7.8,20.6,26.1,12.8,40.9-7.8,14.8-26.1,20.6-41,12.8-14.8-7.8-20.6-26.1-12.8-40.9ZM308.1,168.1c6.2-11.8,20.8-16.4,32.6-10.2,11.8,6.2,16.4,20.8,10.2,32.7-6.2,11.8-20.8,16.4-32.6,10.2-11.8-6.2-16.4-20.8-10.2-32.7ZM209.5,115c5.3-10.1,17.8-14,27.9-8.7,10.1,5.3,14,17.8,8.7,27.9-5.3,10.1-17.8,14-27.9,8.7-10.1-5.3-14-17.8-8.7-27.9h0ZM134.4,24.5c6.2-11.8,20.8-16.4,32.6-10.2,11.8,6.2,16.4,20.8,10.2,32.7-6.2,11.8-20.8,16.4-32.7,10.2-11.8-6.2-16.4-20.8-10.2-32.7h0Z"/>
  </g>
</svg>