<?xml version="1.0" encoding="UTF-8"?>
<svg id="Layer_2" data-name="Layer 2" xmlns="http://www.w3.org/2000/svg" viewBox="0 0 641.83 799.85">
  <defs>
    <style>
      .cls-1 {
        fill-rule: evenodd;
      }
    </style>
  </defs>
  <g id="Artboard_1" data-name="Artboard 1">
    <path class="cls-1" d="M485.34,1625.37l-.75-25.63c-.56-20.98-8.8-34.19-15.1-52.28-6.03-17.32-30.92-157.57-30.24-172.81.84-18.96,11.86-28.36,2.12-58.59-4.93-15.3-11.91-38.78-14.13-54.75-2.84-20.47-5.64-115.8,2.49-128.66,25.85,26.68,29.62,50.15,46.3,89.34,12.24,28.77,33.57,62.98,40.86,95.19,9.4,41.53,22.04,67.26,22.09,113.7.04,38.09.43,94.25-5.07,130.67l-3.15,13.35c-7.2,17.06-10.79,39.4-16.6,57.83-.68,2.16-.88,3.73-1.81,5.81-3.6,8.02-4.99,9.93-7.78,20.36l1.48,6.91c15.34,4.14,79.92,15.97,74.45-12.1-1.62-8.34-12.37-17.13.14-39.13,9.94-17.48,11.62-15.29,8.65-38.26l-2.49-10.75-.89-4.93-4.43-21.51c-7.93-73.1-17.14-77.11-6.57-159.95,2.41-18.89,8.6-30.48,11.32-48.26,10.2-66.53-22.73-62.69,1.1-153.59,2.69-10.25,8.92-39.68,14.4-45.06,2.35,4.11,14.41,53.46,13.8,59.12-1.47,13.55-15.26,38.3-19.52,53.97-13.84,50.84,16.09,82,11.13,109.86-1.3,7.31-3.9,6.82-5.06,12.46,19.77-5.24,40.11-33.69,39.78-61.88-.5-42.42-21.91-129.82-31.03-174.84-3.78-18.65-5.7-25.49-1.26-44.05,7.28-30.44,11.83-51.39,15.26-82.87,8.98-40.75-4.82-84.51-22.83-120.7l-41.07-82.38c-7.66-11.22-7.56-8.7-23.23-17.45-17.45-9.74-36.61-18.27-54.45-28.39-59.29-33.63-29.74-8.82-73.47-48.49-39.71-36.02-53.18-64.77-66.89-78.59-36.17-36.46-63-25.81-82.57-61.24-21.49-38.91-35.97-75.58-45.49-120.3-4.6-21.64-12.27-45.88-15.54-67.21-3.58-23.33-5.94-47.3-12.46-68.9-3.17-10.5-5.9-21.03-9.19-31.38-6.13-19.28-24.66-89.52-24.33-97.42.28-6.81,4.87-6.12,4.62-15.5-.51-19.01-8.59-12.42,2.99-53.25,5.76-2.88,2.13.69,7.91-1.56-1.21-2.45-1.88-4.5-1.91-9.09,18.95-2.94,28.51-6.98,37.23-19.47,7.6-10.89,11.32-29.99,8.52-45.53-10.9-2.06-23.95,5.49-35.06,11.08-17.34,8.72-6.12,24.48-26.94,19.64-5.86-15.8,2.12-56.26-12.55-65.36-14.67-9.1-15.49,8.28-16.21,18.05-1.16,15.81-4.86,22.07-21.19,17.76-4.2-15.15,11.45-40.44-14.85-37.78-13.45,11.87-11.9,52.7-23.17,69.34-11.36-6.51-9.95-15.99-23.89-21.14C15.43,40.14-7.03,30.78,2.07,60.46c5.78,18.86,7.7,22.59,21.37,35.01,5.69,5.17,12.32,5.47,20.4,7.89l-4.53,12.2,8.91-1.22c18.37,25.73,16.14,28.38,17.35,64.2.7,20.75,3.55,16.19,11.68,28.82,7.66,11.9,13.79,11.96,27.07,5.42,3.83,29.6,9.68,66.84,15.63,95.75,6.65,32.3,9.99,63.08,14.61,96.51,4.61,33.39,3.71,69.01,8.23,102.55,4.54,33.64,3.57,67.65,11.7,99.34,9.31,36.26,26.07,88.94,45.18,120.62,6.97,11.57,16.45,22.23,11.92,39.52-6.03,23.02-16.44,67.37-25.76,85.3-29.66,57.03-5.75,66.01,13.6,125.51,15.81,48.59,11.27,68.6,17.49,93.61,17.23,69.32,40.02,131.59,42.45,206.14l2.83,77.07c1.98,18.57,3.49,33.49,3.84,52.73.46,25.3-6.23,125.45-10.94,155.4-2.58,16.4-9.42,27.18-12.96,43.18-3.55,16.05-14.9,22.8-20.56,35.79-1.44,3.3-2.2,7.61-3.52,10.53-4.22,9.4-15.99,13.09-17.01,25.58,10.53,8,35.05,7.32,50.45,7.04,8.33-.15,18.17-.19,25.09-3.79,29.49-15.33-1.24-26.36.63-43.35.88-8.01,9.06-22.38,12.64-29.45,5.96-11.77,2.96-59.08,3.46-77.35,1.52-55.13,6.57-102.35,13.32-156.05,1.51-11.98,5.39-22.33,6.28-34.7.93-12.91-3.02-25.48-4.65-37.99-3.42-26.22-3.99-53.99-4.43-80.78-.44-26.87-.67-54.63-2.42-81.41-.84-12.86-4.61-72.22-2.32-80.51,13.37-6.95,26,6.46,33.45,11.88,14.28,10.4,16.75,7.31,20.28,29.82,4.3,27.43,16.25,52.57,21.95,78.18,4.95,22.24,11.68,63.6,12.83,87.21,1.38,28.52-5.32,68.81,7.47,92.53,21.63,40.1,15.64,24.41,22.91,73.66,3.25,21.99,21.68,112.9,19.51,130.75-3.07,25.28-4.31,17.05,1.86,42.06,2.28,9.26,3.51,11.87,1.08,20.5-2.4,8.51-.96,13.33-6.11,18.81-5.26,5.59-23.04,17.93-24.18,25.97,8.47,3.42,13.78,2.57,22.55.45,9.18-2.22,63.93,16.01,60.48-13.79,1.7-2.11,1.43,3.31,2.15-4.72-1.59-8.56-2.15-7.78-5.55-14.75-2.24-4.59-1.29-3.19-2.29-7.2-1.4-5.6.74-2.17-2.14-5.56h0Z"/>
  </g>
</svg>