<?xml version="1.0" encoding="UTF-8"?>
<svg id="Layer_2" data-name="Layer 2" xmlns="http://www.w3.org/2000/svg" viewBox="0 0 508.7 736.26">
  <defs>
    <style>
      .cls-1 {
        fill: #fff;
      }

      .cls-2 {
        fill-rule: evenodd;
      }
    </style>
  </defs>
  <g id="Artboard_1" data-name="Artboard 1">
    <g>
      <path class="cls-1" d="M0,517.4v-3.62c5.94-.87,10.88-2.52,14.84-4.93,3.41-2.08,5.83-4.82,7.25-8.22,1.43-3.4,2.14-8.17,2.14-14.31l-.16-16.61-.49-26.64c0-17.1,1.15-29.21,3.46-36.34,2.09-6.36,5.25-11.4,9.48-15.12,4.23-3.73,9.58-6.14,16.05-7.24,5.13-.99,9.99-1.48,14.58-1.48l6.72-.16,2.46-.17v4.61c-4.7.33-8.27.93-10.73,1.81-2.46.88-4.89,2.36-7.29,4.44-2.95,2.52-5.16,5.37-6.63,8.55-1.47,3.18-2.43,7.24-2.87,12.17-.33,3.51-.49,10.91-.49,22.2l.16,30.43c0,12.72-.52,21.44-1.57,26.15-1.04,4.71-3.38,9.05-7,12.99-4.29,4.61-10.11,7.57-17.47,8.88v1.38c6.37.88,11.76,3.51,16.15,7.91,3.41,3.29,5.85,7.27,7.33,11.94,1.48,4.67,2.23,10.62,2.23,17.87l.16,17.13v34.75c0,12.18.52,20.86,1.56,26.02,1.04,5.16,3.14,9.5,6.31,13.01,2.4,2.74,5.41,4.88,9.01,6.42,3.6,1.54,7.31,2.31,11.14,2.31v4.44l-3.6-.16c-11.79,0-21.08-1.26-27.87-3.79-7.37-2.86-12.8-7.93-16.32-15.23-3.52-7.3-5.27-17.15-5.27-29.55l.16-17.78.49-27.33.49-19.43c0-8.78-1.84-15.25-5.53-19.43-3.68-4.17-9.97-6.8-18.88-7.9h0Z"/>
      <path class="cls-1" d="M508.7,523.17v3.62c-5.94.87-10.88,2.52-14.84,4.93-3.41,2.08-5.83,4.82-7.25,8.22-1.43,3.4-2.15,8.17-2.15,14.31l.17,16.61.49,26.64c0,17.1-1.16,29.21-3.46,36.33-2.09,6.36-5.24,11.4-9.48,15.12-4.23,3.73-9.58,6.14-16.05,7.24-5.13.99-9.99,1.48-14.57,1.48l-6.72.16-2.46.16v-4.61c4.7-.33,8.27-.93,10.73-1.81,2.46-.88,4.89-2.36,7.29-4.44,2.95-2.52,5.17-5.37,6.63-8.55,1.48-3.18,2.43-7.24,2.87-12.17.33-3.51.49-10.91.49-22.2l-.17-30.43c0-12.72.53-21.44,1.57-26.15,1.05-4.71,3.38-9.05,7-12.99,4.29-4.61,10.11-7.57,17.48-8.88v-1.38c-6.37-.88-11.76-3.51-16.16-7.91-3.4-3.29-5.84-7.27-7.33-11.94-1.48-4.67-2.23-10.62-2.23-17.87l-.16-17.13v-34.75c0-12.18-.52-20.86-1.56-26.02-1.03-5.16-3.14-9.5-6.31-13.01-2.4-2.74-5.4-4.88-9.01-6.42-3.61-1.54-7.31-2.3-11.14-2.3v-4.45l3.61.17c11.79,0,21.08,1.26,27.87,3.79,7.36,2.86,12.8,7.93,16.32,15.23,3.51,7.3,5.27,17.15,5.27,29.55l-.16,17.78-.49,27.33-.49,19.43c0,8.78,1.84,15.25,5.53,19.43,3.68,4.17,9.98,6.8,18.88,7.9h0Z"/>
    </g>
    <path class="cls-2" d="M216.14,676.68c4.07,4.78,6.56,11.7,9.33,16.95,1.85,3.51,3.63,5.52,5.04,8.01,9.59,16.88-18.41,8.88-21.94,5.65-4.42-4.04.97-10.38-6.49-19.22-13.31-15.78-5.04-3.85-5.32-44.62l-6.25-45.38c-1.86-23.28-8.88-28.93-.24-52.3,4.46-12.06,13.22-34.59,11.09-48.29-6.83,18.57-21.92,51.21-22.8,71.28l.4,12.6c-.52.67.57,19.49.75,22.37l.04,11.21.45,12.97c-.08,12.15,7.15,74.12,5.93,77.33-13.2,5.9-26.79-8.05-27.2-20.52,11.82-11.83,8.69.06,9.5-43.43l-1.17-22.47-.87-5.81-5.58-30.82-4.33-19.11c-.85-3.19-2.53-7.15-3.14-9.66-1.33-5.46-.97-5.17,1.28-8.08-.46-21.54,14.4-36.02,14.95-59.95.13-5.6-6.5-66.28-7.55-68.76-12.13,13.93-7.15,42.88-8.78,57.31-3.12,27.62-8.09,16.23-10.53,38.6l-1.59,13.73c-9.62-5.19-5.9-14.22-7.75-20.96-.08-.3-.29-.72-.39-1.03-3.33-10.85-.65-3.84,2.18-17.17,2.73-12.84,1.58-4.05,7.37-11.57,5.97-7.76,5.06-21.37,5.47-31.86.4-10.21,3.07-21.95,5.39-31.18,9.74-38.82,33.9-68.92,71.39-78.24,20.63-5.13,33.11-15.68,38.71-35.19,8.02-27.89,20.7-24.62,30.18-45.33,12.04-26.3,10.62-68.9,7.46-98.69-1.33-12.52-4.71-21.89-5.94-32.63l-1.8-10.06-3.92-19.41c-9.77,3.03-6.47,8.26-21.32,6.95,4.44-8.41,12.6-12.75,18.14-21.21-2.84-10.59-5.19-5.83-15.88-7.26-6.94,8.56-10.25-.27-7.32-7.6l7.5-1.24c6.5-1.91,6.47-3.3,10.3-6.52,3.56-3,6.33-3.87,9.52-6.03l-.32-5.95c.91-6.22,2.94-7.51,8.23-8.9,10.06-1.47,21.14-11.24,27.1-18.15,7.51-8.71,7.12-20.36,26.92-16.13,2.03,13.98-6.79,28.28-8.87,42.41-2.84,19.32-1.16,26.36-9.73,43.22-4.5,8.85,1.97,30.31,4.74,42.35,10.4,45.05,12.46,101.92,9.3,148.49-2.65,38.89-11.54,66.08,5.4,92.41,21.78,33.87,9.06,41,7.05,62.81-.88,9.51.54,16.1-1.53,26.15-7.59,36.99-20.1,29.34-16.46,89.28,1.18,19.46,5.19,27.51,2.67,49.29l4.24,72.32c1.99,8.21,5.58,8.9,6.44,20.26,2.67,35.32,14.68,22.79,14.04,42.05-13.06,8.34-19.86,3.25-30.71-3.83.47-16.55,7.85-7.78-1.81-28.75-8.94-19.4,11.31-28.68-11.6-96.09-14.9-43.85-2.09-34.34-2.7-63.17-.24-11.57.13-66.5-3.56-71.93-2.05-1.51-.24-1.25-3.58-.78-5.42.77-.45.95-9.27,3.07l-5.43,1.24c-7.99,2.05-11.6,35.23-11.17,49.06,2.03,64.22,23.13,35.81-1.52,97.32-9.63,24.04-9.62,13.13-13.98,45.24,3.32,4.85.4,9.6-2.61,14.19-5.45,5.51-3.74,12.07-2.97,21.72l-1.06,9.54c-11.18,6.95-18.72-.24-24.19-10.84-3.94-7.63-2.7-10.95,3.35-14.9.28-.29.75-.62.95-.79l7.08-14.39,1.63-2.3c1.21-2.74,1.8-3.85,3.33-6.69,2.68-4.97.31-2.69,4.29-5.59-.28-11.83,8.97-23.66,9.68-41.01,1.7-41.71,3.51-56.91-9.3-95.92-4.39-13.38-5.64-34.11-9.25-44.13-6.56.83-6.35,2.55-8.95,9.01-1.8,4.49-3.46,9.75-5.33,14.06-11.82,27.25-30.42,47.01-34.12,80.39v34.85c-1.99,9.78,6.91,54.59,9.27,66.17h0Z"/>
  </g>
</svg>