<?xml version="1.0" encoding="UTF-8"?>
<svg id="Layer_1" data-name="Layer 1" xmlns="http://www.w3.org/2000/svg" viewBox="0 0 293.01 131.3">
  <defs>
    <style>
      .cls-1 {
        fill: #bd2330;
      }

      .cls-2 {
        fill: #010101;
      }
    </style>
  </defs>
  <path class="cls-2" d="M10.03,66.96c0,3.5.73,6.35,2.2,8.56,1.47,2.2,3.34,3.31,5.63,3.31s4.12-1.09,5.41-3.28c1.29-2.19,1.93-5.23,1.93-9.12s-.84-7.23-2.51-9.63c-1.22-1.78-2.8-2.67-4.74-2.67-2.32,0-4.19,1.17-5.61,3.5-.71,1.17-1.27,2.59-1.69,4.28-.42,1.69-.63,3.37-.63,5.06h0ZM12.12,99.33l-.87.24c-.55-.91-1.1-1.54-1.65-1.9-.55-.36-1.23-.54-2.04-.54-1.36,0-2.46.52-3.32,1.56-.86,1.04-1.28,2.39-1.28,4.04,0,2.63,1.31,4.79,3.93,6.48,2.62,1.69,5.96,2.53,10.03,2.53,4.33,0,7.83-.93,10.49-2.8,2.67-1.87,4-4.3,4-7.28,0-2.4-.89-4.25-2.67-5.53-1.78-1.28-4.31-1.92-7.61-1.92h-7.71c-3.17,0-5.72-.75-7.66-2.25-2-1.56-3.01-3.44-3.01-5.62,0-2.31,1.07-4.14,3.2-5.47,1.1-.65,3.1-1.35,6.01-2.1-2.81-1.3-4.99-3.01-6.54-5.13-1.55-2.12-2.33-4.47-2.33-7.03,0-3.27,1.21-6.19,3.64-8.75,1.42-1.52,3.1-2.71,5.04-3.55,1.94-.84,3.93-1.26,5.97-1.26,3.1,0,6.27,1.1,9.51,3.31,1.52-1.2,2.89-2.05,4.11-2.56,1.21-.5,2.53-.76,3.96-.76,1.59,0,2.87.34,3.84,1.02,1.17.85,1.75,1.88,1.75,3.12,0,.75-.23,1.37-.69,1.88-.46.5-1.03.76-1.71.76-1.04,0-1.99-.55-2.84-1.66l-1.11-1.46c-.61-.78-1.48-1.17-2.61-1.17-1.19,0-2.45.6-3.77,1.8,2.64,3.22,3.95,6.53,3.95,9.94,0,4.26-1.88,7.62-5.64,10.08-1.88,1.24-3.91,2.06-6.08,2.48-.65.1-2.71.26-6.17.49-4.75.29-7.13,1.62-7.13,4,0,2.08,2.02,3.12,6.07,3.12h8.01c2.82,0,5.19.25,7.14.76,1.94.5,3.64,1.29,5.1,2.36,2.85,2.11,4.27,5.08,4.27,8.92,0,4.22-1.65,7.52-4.95,9.89-3.4,2.44-8.38,3.65-14.95,3.65-7.05,0-12.05-1.43-15-4.29C.94,106.88,0,104.58,0,101.82,0,99.64.69,97.8,2.08,96.29c1.39-1.51,3.09-2.27,5.09-2.27,1.45,0,2.64.44,3.56,1.32.92.88,1.38,2.03,1.38,3.46v.54h0Z"/>
  <path class="cls-2" d="M51.5,35.56c-1.27,0-2.32-.41-3.14-1.22-.83-.81-1.24-1.83-1.24-3.07s.42-2.22,1.27-3.04c.84-.83,1.88-1.24,3.12-1.24s2.27.41,3.12,1.24c.84.83,1.27,1.84,1.27,3.04s-.41,2.26-1.24,3.07c-.83.81-1.88,1.22-3.14,1.22h0ZM41.39,54.8l13.96-1.75v28.06l.05,3.69c0,2.2.13,3.81.39,4.83.26,1.02.76,1.87,1.5,2.55.9.87,2.57,1.54,4.99,1.99v1.02h-21.42v-1.02c1.94-.26,3.33-.62,4.17-1.09.84-.47,1.52-1.27,2.04-2.4.36-.74.61-1.87.75-3.37.15-1.5.22-3.68.22-6.52v-11.97c0-3.33-.08-5.66-.24-7-.16-1.34-.52-2.43-1.07-3.27-.55-.9-1.21-1.56-1.99-1.96-.78-.4-1.89-.65-3.34-.75v-1.02h0Z"/>
  <path class="cls-2" d="M78.77,60.54c1.16-2.04,2.47-3.59,3.93-4.62,2.68-1.91,5.74-2.87,9.16-2.87,2.1,0,3.7.47,4.8,1.41,1,.84,1.5,1.88,1.5,3.12,0,.91-.3,1.66-.9,2.24-.6.58-1.37.88-2.3.88-1.1,0-2.05-.45-2.86-1.36l-1.5-1.65c-1.2-1.27-2.6-1.9-4.22-1.9-2.2,0-3.91,1.43-5.14,4.28-1.23,2.85-1.84,6.83-1.84,11.92v9.1l.05,3.7c0,2.21.13,3.82.39,4.84.26,1.02.76,1.87,1.5,2.55.9.88,2.57,1.54,4.99,2v1.02h-21.42v-1.02c1.94-.26,3.33-.62,4.17-1.09.84-.47,1.52-1.27,2.04-2.4.36-.74.61-1.87.75-3.37.15-1.5.22-3.68.22-6.52v-11.97c0-3.33-.08-5.66-.24-7-.16-1.34-.52-2.43-1.07-3.27-.55-.9-1.21-1.56-1.99-1.96-.78-.4-1.89-.65-3.34-.75v-1.02l12.5-1.75c.56,2.92.83,5.41.83,7.5h0Z"/>
  <path class="cls-2" d="M124.86,71.27c-1.74,1.46-3.66,2.75-5.75,3.85-2.35,1.27-3.98,2.23-4.88,2.87-.9.65-1.72,1.43-2.46,2.34-1.51,1.88-2.27,4.08-2.27,6.58,0,2.14.59,3.91,1.76,5.31,1.18,1.4,2.67,2.1,4.47,2.1,1.58,0,3.07-.49,4.47-1.49,1.4-.99,2.46-2.31,3.17-3.97,1-2.18,1.5-5.33,1.5-9.45v-8.14h0ZM140.91,90.46l.82.49c-1.16,3.41-3.83,5.12-8,5.12-2.3,0-4.21-.57-5.73-1.71-1-.75-2.04-2.05-3.11-3.9-2.17,1.95-3.8,3.23-4.9,3.85-2.1,1.17-4.55,1.75-7.33,1.75-3.56,0-6.38-.86-8.47-2.58-2.09-1.72-3.13-4.04-3.13-6.97,0-2.7.86-4.95,2.57-6.77.97-1.01,2.08-1.81,3.34-2.41,1.26-.6,3.09-1.21,5.48-1.83,2.81-.71,4.89-1.32,6.23-1.8,1.34-.49,2.46-1.07,3.37-1.75,1.03-.75,1.74-1.62,2.13-2.63.39-1.01.58-2.4.58-4.19,0-3.8-.71-6.58-2.13-8.33-.65-.81-1.48-1.46-2.5-1.95-1.02-.49-2.08-.73-3.17-.73-1.33,0-2.5.34-3.54,1.02-1.03.68-1.81,1.62-2.33,2.83l-1.21,2.83c-.65,1.53-1.81,2.29-3.49,2.29-1.1,0-2.02-.37-2.76-1.1-.74-.73-1.11-1.65-1.11-2.75,0-1.66,1.16-3.05,3.5-4.19,1.26-.58,2.82-1.06,4.69-1.44,1.86-.37,3.68-.56,5.46-.56,2.01,0,4.09.26,6.26.78,2.17.52,3.98,1.19,5.44,2,2.1,1.2,3.41,2.76,3.93,4.68.26.97.39,2.61.39,4.92v18.03c0,3.05.13,5.13.39,6.24.55,2.31,1.87,3.46,3.97,3.46,1,0,1.79-.18,2.35-.54.56-.36,1.24-1.07,2.01-2.14h0Z"/>
  <path class="cls-2" d="M142.46,70.81v-1.07c1.76-.26,3.22-.75,4.39-1.46,1.01-.62,1.72-1.43,2.15-2.43.42-1.01.63-2.42.63-4.23l-.05-4.91-.15-7.88c0-5.06.34-8.64,1.02-10.75.62-1.88,1.55-3.37,2.81-4.48,1.25-1.1,2.84-1.82,4.75-2.14,1.52-.29,2.96-.44,4.31-.44l1.99-.05.73-.05v1.36c-1.39.1-2.45.28-3.17.54-.73.26-1.45.7-2.16,1.31-.87.75-1.53,1.59-1.96,2.53-.44.94-.72,2.14-.85,3.6-.1,1.04-.15,3.23-.15,6.57l.05,9c0,3.76-.15,6.34-.46,7.74-.31,1.4-1,2.68-2.07,3.85-1.27,1.36-2.99,2.24-5.17,2.63v.41c1.89.26,3.48,1.04,4.78,2.34,1.01.98,1.73,2.15,2.17,3.53.44,1.38.66,3.14.66,5.29l.05,5.07v10.28c0,3.61.15,6.17.46,7.7.31,1.53.93,2.81,1.87,3.85.71.81,1.6,1.44,2.67,1.9,1.07.45,2.16.68,3.3.68v1.32l-1.07-.05c-3.49,0-6.24-.37-8.25-1.12-2.18-.85-3.79-2.35-4.83-4.51-1.04-2.16-1.56-5.07-1.56-8.75l.05-5.26.15-8.09.15-5.75c0-2.6-.55-4.51-1.64-5.75-1.09-1.23-2.95-2.01-5.59-2.34h0Z"/>
  <path class="cls-1" d="M184.23,72.68c0,4.48.19,7.86.58,10.13.39,2.27,1.08,4.11,2.08,5.51.9,1.23,2.08,2.23,3.55,2.97,1.46.75,2.95,1.12,4.47,1.12,3.41,0,6.39-1.62,8.93-4.87,1.55-1.95,2.74-4.25,3.57-6.92.84-2.66,1.26-5.44,1.26-8.33s-.39-5.53-1.18-8.21c-.79-2.68-1.89-4.98-3.31-6.89-2.41-3.31-5.36-4.97-8.84-4.97-1.71,0-3.32.42-4.83,1.27-1.51.84-2.72,2-3.62,3.46-1,1.56-1.69,3.5-2.08,5.82-.39,2.32-.58,5.63-.58,9.91h0ZM184.23,88.85l.05,8.94v3.35c0,2.2.13,3.82.39,4.84.26,1.02.76,1.89,1.5,2.6.9.87,2.57,1.52,4.99,1.94v1.02h-21.42v-1.02c1.94-.26,3.33-.62,4.17-1.07.84-.45,1.52-1.25,2.04-2.38.36-.75.61-1.88.75-3.41.15-1.53.22-3.7.22-6.52v-33.64c0-3.67-.57-6.28-1.72-7.84-1.15-1.56-3.08-2.34-5.79-2.34v-1.22l14.15-2c.36,1.56.53,2.99.53,4.29v.93c2.39-1.62,4.63-2.78,6.73-3.48,2.1-.7,4.37-1.05,6.82-1.05,4.9,0,9.1,1.48,12.58,4.43,2.19,1.88,3.89,4.24,5.08,7.06,1.19,2.83,1.79,5.94,1.79,9.35s-.64,6.84-1.91,9.89c-1.27,3.05-3.09,5.57-5.44,7.55-3.68,3.15-8.05,4.73-13.12,4.73-2.42,0-4.51-.36-6.27-1.07-1.76-.71-3.8-2.01-6.12-3.9h0Z"/>
  <path class="cls-1" d="M235.9,24.49v33.37c1.13-1.39,2.13-2.48,3.01-3.26.87-.78,1.92-1.46,3.15-2.04,2.36-1.17,5.04-1.75,8.05-1.75,3.81,0,6.96.76,9.45,2.29,1.78,1.14,3,2.52,3.66,4.16.66,1.64.99,4.1.99,7.37v14.21l.05,3.7c0,2.21.13,3.82.39,4.84.26,1.02.76,1.87,1.5,2.55.91.88,2.57,1.54,4.99,2v1.02h-21.41v-1.02c1.71-.23,2.92-.5,3.65-.83.72-.32,1.38-.88,1.96-1.65.58-.81.98-1.91,1.21-3.31.23-1.39.34-3.46.34-6.18v-15.42c0-2.34-.18-4.18-.53-5.55-.35-1.36-.95-2.55-1.79-3.55-1.64-1.91-3.97-2.87-6.96-2.87-7.8,0-11.7,6.2-11.7,18.59v7.79l.05,3.6c0,2.21.13,3.82.39,4.84.26,1.02.76,1.87,1.5,2.55.9.88,2.56,1.54,4.98,2v1.02h-21.41v-1.02c1.94-.26,3.33-.62,4.17-1.09.84-.47,1.52-1.27,2.04-2.41.36-.75.61-1.87.75-3.38.15-1.51.22-3.69.22-6.54v-38.19c0-3.31-.08-5.64-.24-7-.16-1.36-.52-2.46-1.07-3.31-.55-.91-1.21-1.56-1.99-1.95-.78-.39-1.89-.63-3.34-.73v-1.07l13.96-1.75h0Z"/>
  <path class="cls-2" d="M293.01,72.51v1.07c-1.76.26-3.22.75-4.39,1.46-1.01.62-1.72,1.43-2.15,2.43-.42,1.01-.64,2.42-.64,4.23l.05,4.91.14,7.88c0,5.06-.34,8.64-1.02,10.75-.62,1.88-1.55,3.37-2.8,4.48-1.25,1.1-2.84,1.82-4.75,2.14-1.52.29-2.96.44-4.31.44l-1.99.05-.73.05v-1.36c1.39-.1,2.45-.28,3.17-.54s1.45-.7,2.16-1.31c.87-.75,1.53-1.59,1.96-2.53.44-.94.72-2.14.85-3.6.1-1.04.15-3.23.15-6.57l-.05-9c0-3.76.16-6.34.46-7.74.31-1.4,1-2.68,2.07-3.85,1.27-1.36,2.99-2.24,5.17-2.63v-.41c-1.89-.26-3.48-1.04-4.78-2.34-1.01-.98-1.73-2.15-2.17-3.53-.44-1.38-.66-3.14-.66-5.29l-.05-5.07v-10.28c0-3.61-.15-6.17-.46-7.7-.31-1.53-.93-2.81-1.87-3.85-.71-.81-1.6-1.44-2.67-1.9-1.07-.45-2.16-.68-3.3-.68v-1.32l1.07.05c3.49,0,6.24.37,8.25,1.12,2.18.85,3.79,2.35,4.83,4.51,1.04,2.16,1.56,5.08,1.56,8.75l-.05,5.26-.15,8.09-.15,5.75c0,2.6.55,4.51,1.64,5.75,1.09,1.23,2.95,2.01,5.59,2.34h0Z"/>
  <path class="cls-2" d="M156.28,13.83c-.46.22-1.47.56-2.76.56-2.9,0-4.78-1.98-4.78-4.95s2.03-5.15,5.16-5.15c1.03,0,1.95.26,2.42.52l-.4,1.34c-.42-.22-1.07-.46-2.03-.46-2.2,0-3.4,1.66-3.4,3.67,0,2.24,1.43,3.61,3.34,3.61.99,0,1.65-.24,2.14-.46l.3,1.32h0Z"/>
  <path class="cls-2" d="M158.35,7.52c0-1.14-.02-2.12-.08-3.01h1.53l.08,1.9h.06c.44-1.3,1.51-2.12,2.68-2.12.18,0,.32.02.48.06v1.64c-.2-.02-.38-.04-.62-.04-1.23,0-2.1.94-2.34,2.24-.04.26-.06.54-.06.84v5.15h-1.75l.02-6.65h0Z"/>
  <path class="cls-2" d="M170.8,8.38c.02-1.1-.46-2.85-2.4-2.85-1.79,0-2.54,1.64-2.68,2.85h5.08ZM165.7,9.64c.04,2.37,1.53,3.35,3.28,3.35,1.25,0,2.03-.22,2.66-.48l.32,1.24c-.62.28-1.69.62-3.22.62-2.94,0-4.73-1.98-4.73-4.87s1.73-5.23,4.53-5.23c3.14,0,3.95,2.77,3.95,4.55,0,.36-.02.64-.06.84l-6.73-.02h0Z"/>
  <path class="cls-2" d="M179.71,9.24c-1.91-.04-4.07.3-4.07,2.18,0,1.16.75,1.68,1.63,1.68,1.27,0,2.08-.8,2.36-1.62.06-.18.08-.38.08-.56v-1.68h0ZM181.42,11.85c0,.84.04,1.66.14,2.31h-1.57l-.16-1.22h-.06c-.52.76-1.57,1.44-2.94,1.44-1.95,0-2.94-1.38-2.94-2.77,0-2.33,2.06-3.61,5.78-3.59v-.2c0-.8-.22-2.26-2.18-2.24-.91,0-1.85.26-2.52.72l-.4-1.18c.79-.5,1.97-.84,3.18-.84,2.96,0,3.67,2.02,3.67,3.95v3.61h0Z"/>
  <path class="cls-2" d="M186.25,2.2v2.31h2.5v1.34h-2.5v5.21c0,1.2.34,1.88,1.31,1.88.48,0,.75-.04,1.01-.12l.08,1.34c-.34.12-.87.24-1.55.24-.81,0-1.47-.28-1.89-.74-.48-.54-.68-1.4-.68-2.53v-5.27h-1.49v-1.34h1.49v-1.78l1.71-.54h0Z"/>
  <path class="cls-2" d="M196.69,8.38c.02-1.1-.46-2.85-2.4-2.85-1.79,0-2.54,1.64-2.68,2.85h5.08ZM191.59,9.64c.04,2.37,1.53,3.35,3.28,3.35,1.25,0,2.03-.22,2.66-.48l.32,1.24c-.62.28-1.69.62-3.22.62-2.94,0-4.73-1.98-4.73-4.87s1.73-5.23,4.53-5.23c3.14,0,3.95,2.77,3.95,4.55,0,.36-.02.64-.06.84l-6.73-.02h0Z"/>
  <path class="cls-2" d="M211.6,13.83c-.46.22-1.47.56-2.76.56-2.9,0-4.78-1.98-4.78-4.95s2.03-5.15,5.16-5.15c1.03,0,1.95.26,2.42.52l-.4,1.34c-.42-.22-1.07-.46-2.03-.46-2.2,0-3.4,1.66-3.4,3.67,0,2.24,1.43,3.61,3.34,3.61.99,0,1.65-.24,2.14-.46l.3,1.32h0Z"/>
  <path class="cls-2" d="M213.65,0h1.75v6.03h.04c.28-.5.71-.96,1.25-1.24.52-.32,1.13-.5,1.79-.5,1.29,0,3.36.8,3.36,4.13v5.75h-1.75v-5.55c0-1.58-.58-2.87-2.22-2.87-1.13,0-2.01.8-2.34,1.76-.1.24-.12.5-.12.84v5.83h-1.75V0h0Z"/>
  <path class="cls-2" d="M230.76,8.38c.02-1.1-.46-2.85-2.4-2.85-1.79,0-2.54,1.64-2.68,2.85h5.08ZM225.66,9.64c.04,2.37,1.53,3.35,3.28,3.35,1.25,0,2.03-.22,2.66-.48l.32,1.24c-.62.28-1.69.62-3.22.62-2.94,0-4.73-1.98-4.73-4.87s1.73-5.23,4.53-5.23c3.14,0,3.95,2.77,3.95,4.55,0,.36-.02.64-.06.84l-6.73-.02h0Z"/>
  <path class="cls-2" d="M234.61,7.12c0-1.02-.04-1.82-.08-2.61h1.53l.08,1.56h.06c.54-.92,1.43-1.78,3.04-1.78,1.29,0,2.28.8,2.7,1.94h.04c.3-.56.7-.96,1.09-1.26.58-.44,1.19-.68,2.1-.68,1.29,0,3.18.84,3.18,4.19v5.69h-1.71v-5.47c0-1.88-.69-2.97-2.08-2.97-1.01,0-1.77.74-2.08,1.58-.08.26-.14.58-.14.88v5.99h-1.71v-5.79c0-1.56-.68-2.65-2.01-2.65-1.07,0-1.89.88-2.16,1.76-.1.26-.14.56-.14.86v5.83h-1.71v-7.04h0Z"/>
  <path class="cls-2" d="M251.17,14.17V4.51h1.75v9.66h-1.75ZM252.01,2.73c-.66,0-1.09-.52-1.09-1.14s.46-1.12,1.13-1.12,1.11.5,1.11,1.12-.44,1.14-1.13,1.14h-.02Z"/>
  <path class="cls-2" d="M255.58,12.39c.54.32,1.45.68,2.32.68,1.25,0,1.85-.62,1.85-1.44s-.5-1.3-1.77-1.78c-1.75-.64-2.56-1.58-2.56-2.73,0-1.56,1.27-2.83,3.32-2.83.97,0,1.83.26,2.34.6l-.42,1.26c-.38-.22-1.07-.56-1.97-.56-1.03,0-1.59.6-1.59,1.32,0,.82.56,1.18,1.81,1.66,1.65.62,2.52,1.46,2.52,2.91,0,1.72-1.33,2.91-3.57,2.91-1.05,0-2.03-.28-2.7-.68l.42-1.32h0Z"/>
  <path class="cls-2" d="M265.78,2.2v2.31h2.5v1.34h-2.5v5.21c0,1.2.34,1.88,1.31,1.88.48,0,.75-.04,1.01-.12l.08,1.34c-.34.12-.87.24-1.55.24-.81,0-1.47-.28-1.89-.74-.48-.54-.68-1.4-.68-2.53v-5.27h-1.49v-1.34h1.49v-1.78l1.71-.54h0Z"/>
  <path class="cls-2" d="M270.27,7.52c0-1.14-.02-2.12-.08-3.01h1.53l.08,1.9h.06c.44-1.3,1.51-2.12,2.68-2.12.18,0,.32.02.48.06v1.64c-.2-.02-.38-.04-.62-.04-1.23,0-2.1.94-2.34,2.24-.04.26-.06.54-.06.84v5.15h-1.75l.02-6.65h0Z"/>
  <path class="cls-2" d="M277.85,4.51l2.08,5.71c.24.64.48,1.4.64,1.98h.04c.18-.58.38-1.32.62-2.02l1.91-5.67h1.85l-2.62,6.88c-1.25,3.31-2.1,5.01-3.3,6.07-.87.74-1.71,1.04-2.14,1.12l-.44-1.48c.44-.12,1.01-.4,1.53-.86.48-.38,1.05-1.06,1.47-1.96.08-.18.14-.3.14-.42,0-.1-.04-.24-.14-.44l-3.53-8.92h1.91Z"/>
  <path class="cls-2" d="M192.02,129.31c.54.32,1.45.68,2.32.68,1.25,0,1.85-.62,1.85-1.44s-.5-1.3-1.77-1.78c-1.75-.64-2.56-1.58-2.56-2.73,0-1.56,1.27-2.83,3.32-2.83.97,0,1.83.26,2.34.6l-.42,1.26c-.38-.22-1.07-.56-1.97-.56-1.03,0-1.59.6-1.59,1.32,0,.82.56,1.18,1.81,1.66,1.65.62,2.52,1.46,2.52,2.91,0,1.72-1.33,2.91-3.57,2.91-1.05,0-2.03-.28-2.7-.68l.42-1.32h0Z"/>
  <path class="cls-2" d="M202.23,119.11v2.32h2.5v1.34h-2.5v5.21c0,1.2.34,1.88,1.31,1.88.48,0,.75-.04,1.01-.12l.08,1.34c-.34.12-.87.24-1.55.24-.81,0-1.47-.28-1.89-.74-.48-.54-.68-1.4-.68-2.53v-5.27h-1.49v-1.34h1.49v-1.78l1.71-.54h0Z"/>
  <path class="cls-2" d="M211.76,126.15c-1.91-.04-4.07.3-4.07,2.18,0,1.16.75,1.68,1.63,1.68,1.27,0,2.08-.8,2.36-1.62.06-.18.08-.38.08-.56v-1.68h0ZM213.47,128.77c0,.84.04,1.66.14,2.32h-1.57l-.16-1.22h-.06c-.52.76-1.57,1.44-2.94,1.44-1.95,0-2.94-1.38-2.94-2.77,0-2.34,2.06-3.61,5.78-3.59v-.2c0-.8-.22-2.25-2.18-2.24-.91,0-1.85.26-2.52.72l-.4-1.18c.79-.5,1.97-.84,3.18-.84,2.96,0,3.67,2.02,3.67,3.95v3.61h0Z"/>
  <path class="cls-2" d="M216.27,124.04c0-1.02-.02-1.82-.08-2.61h1.55l.1,1.58h.04c.48-.9,1.59-1.8,3.18-1.8,1.33,0,3.4.8,3.4,4.11v5.77h-1.75v-5.57c0-1.56-.58-2.87-2.22-2.87-1.13,0-2.03.82-2.34,1.8-.08.22-.12.54-.12.82v5.83h-1.75v-7.04h0Z"/>
  <path class="cls-2" d="M233.84,125.36c0-.24-.02-.52-.08-.76-.26-1.1-1.21-2.02-2.52-2.02-1.81,0-2.88,1.6-2.88,3.71,0,1.98.97,3.59,2.84,3.59,1.17,0,2.24-.8,2.56-2.1.06-.24.08-.48.08-.76v-1.68h0ZM235.58,116.91v11.67c0,.86.02,1.84.08,2.49h-1.57l-.08-1.68h-.04c-.54,1.08-1.69,1.9-3.26,1.9-2.32,0-4.13-1.98-4.13-4.91-.02-3.23,1.99-5.19,4.31-5.19,1.49,0,2.48.7,2.9,1.46h.04v-5.75h1.75Z"/>
  <path class="cls-2" d="M244.8,119.11v2.32h2.5v1.34h-2.5v5.21c0,1.2.34,1.88,1.31,1.88.48,0,.75-.04,1.01-.12l.08,1.34c-.34.12-.87.24-1.55.24-.81,0-1.47-.28-1.89-.74-.48-.54-.68-1.4-.68-2.53v-5.27h-1.49v-1.34h1.49v-1.78l1.71-.54h0Z"/>
  <path class="cls-2" d="M254.33,126.15c-1.91-.04-4.07.3-4.07,2.18,0,1.16.75,1.68,1.63,1.68,1.27,0,2.08-.8,2.36-1.62.06-.18.08-.38.08-.56v-1.68h0ZM256.03,128.77c0,.84.04,1.66.14,2.32h-1.57l-.16-1.22h-.06c-.52.76-1.57,1.44-2.94,1.44-1.95,0-2.94-1.38-2.94-2.77,0-2.34,2.06-3.61,5.78-3.59v-.2c0-.8-.22-2.25-2.18-2.24-.91,0-1.85.26-2.52.72l-.4-1.18c.79-.5,1.97-.84,3.18-.84,2.96,0,3.67,2.02,3.67,3.95v3.61h0Z"/>
  <polygon class="cls-2" points="258.83 116.91 260.58 116.91 260.58 131.08 258.83 131.08 258.83 116.91 258.83 116.91"/>
  <polygon class="cls-2" points="263.48 116.91 265.23 116.91 265.23 131.08 263.48 131.08 263.48 116.91 263.48 116.91"/>
  <path class="cls-2" d="M274.22,125.3c.02-1.1-.46-2.85-2.4-2.85-1.79,0-2.54,1.64-2.68,2.85h5.08ZM269.12,126.55c.04,2.37,1.53,3.35,3.28,3.35,1.25,0,2.03-.22,2.66-.48l.32,1.24c-.62.28-1.69.62-3.22.62-2.94,0-4.73-1.98-4.73-4.87s1.73-5.23,4.53-5.23c3.14,0,3.95,2.77,3.95,4.55,0,.36-.02.64-.06.84l-6.73-.02h0Z"/>
  <path class="cls-2" d="M278.09,124.44c0-1.14-.02-2.12-.08-3.01h1.53l.08,1.9h.06c.44-1.3,1.51-2.12,2.68-2.12.18,0,.32.02.48.06v1.64c-.2-.02-.38-.04-.62-.04-1.23,0-2.1.94-2.34,2.24-.04.26-.06.54-.06.84v5.15h-1.75l.02-6.65h0Z"/>
</svg>